G04 EAGLE Gerber RS-274X export*
G75*
%MOMM*%
%FSLAX34Y34*%
%LPD*%
%INBottom Copper*%
%IPPOS*%
%AMOC8*
5,1,8,0,0,1.08239X$1,22.5*%
G01*
%ADD10P,1.429621X8X202.500000*%
%ADD11P,1.429621X8X22.500000*%
%ADD12C,1.320800*%
%ADD13P,1.429621X8X292.500000*%
%ADD14C,1.981200*%
%ADD15P,1.732040X8X202.500000*%
%ADD16C,1.600200*%
%ADD17C,1.676400*%
%ADD18R,1.508000X1.508000*%
%ADD19C,1.508000*%
%ADD20C,1.790700*%
%ADD21C,0.406400*%
%ADD22C,0.609600*%


D10*
X368300Y38100D03*
X342900Y38100D03*
D11*
X292100Y38100D03*
X317500Y38100D03*
D12*
X171704Y254000D02*
X158496Y254000D01*
X158496Y228600D02*
X171704Y228600D01*
X234696Y228600D02*
X247904Y228600D01*
X247904Y254000D02*
X234696Y254000D01*
X171704Y203200D02*
X158496Y203200D01*
X158496Y177800D02*
X171704Y177800D01*
X234696Y203200D02*
X247904Y203200D01*
X247904Y177800D02*
X234696Y177800D01*
X285496Y254000D02*
X298704Y254000D01*
X298704Y228600D02*
X285496Y228600D01*
X285496Y101600D02*
X298704Y101600D01*
X298704Y76200D02*
X285496Y76200D01*
X285496Y203200D02*
X298704Y203200D01*
X298704Y177800D02*
X285496Y177800D01*
X285496Y127000D02*
X298704Y127000D01*
X298704Y152400D02*
X285496Y152400D01*
X361696Y76200D02*
X374904Y76200D01*
X374904Y101600D02*
X361696Y101600D01*
X361696Y127000D02*
X374904Y127000D01*
X374904Y152400D02*
X361696Y152400D01*
X361696Y177800D02*
X374904Y177800D01*
X374904Y203200D02*
X361696Y203200D01*
X361696Y228600D02*
X374904Y228600D01*
X374904Y254000D02*
X361696Y254000D01*
X412496Y254000D02*
X425704Y254000D01*
X425704Y228600D02*
X412496Y228600D01*
X412496Y101600D02*
X425704Y101600D01*
X425704Y76200D02*
X412496Y76200D01*
X412496Y203200D02*
X425704Y203200D01*
X425704Y177800D02*
X412496Y177800D01*
X412496Y127000D02*
X425704Y127000D01*
X425704Y152400D02*
X412496Y152400D01*
X488696Y76200D02*
X501904Y76200D01*
X501904Y101600D02*
X488696Y101600D01*
X488696Y127000D02*
X501904Y127000D01*
X501904Y152400D02*
X488696Y152400D01*
X488696Y177800D02*
X501904Y177800D01*
X501904Y203200D02*
X488696Y203200D01*
X488696Y228600D02*
X501904Y228600D01*
X501904Y254000D02*
X488696Y254000D01*
D13*
X128270Y257810D03*
X128270Y156210D03*
D11*
X152400Y139700D03*
X254000Y139700D03*
D10*
X508000Y38100D03*
X406400Y38100D03*
D14*
X266700Y53594D02*
X266700Y73406D01*
X175006Y88900D02*
X155194Y88900D01*
X155194Y38100D02*
X175006Y38100D01*
D15*
X535940Y54610D03*
D16*
X561340Y54610D03*
D17*
X129540Y130810D03*
X129540Y29210D03*
D18*
X584200Y215100D03*
D19*
X584200Y190100D03*
X584200Y165100D03*
X584200Y140100D03*
X584200Y115100D03*
D18*
X77470Y199790D03*
D19*
X77470Y224790D03*
D20*
X68644Y136760D02*
X50737Y136760D01*
X50737Y86760D02*
X68644Y86760D01*
D21*
X165100Y228600D02*
X177800Y228600D01*
X203200Y203200D01*
X241300Y203200D01*
X254000Y139700D02*
X316230Y139700D01*
X325120Y130810D01*
X325120Y72390D01*
X340360Y57150D01*
X351790Y57150D01*
X368300Y40640D01*
X368300Y38100D01*
X200660Y157480D02*
X129540Y157480D01*
X128270Y156210D01*
X200660Y157480D02*
X254000Y157480D01*
X267970Y171450D01*
X267970Y219710D01*
X259080Y228600D01*
X241300Y228600D01*
X200660Y129540D02*
X266700Y63500D01*
X200660Y129540D02*
X200660Y157480D01*
D22*
X123190Y234950D02*
X107950Y219710D01*
X123190Y234950D02*
X137160Y234950D01*
X156210Y254000D01*
X165100Y254000D01*
X203200Y63500D02*
X253492Y13208D01*
X508000Y25908D02*
X508000Y38100D01*
X317500Y13208D02*
X253492Y13208D01*
X317500Y13208D02*
X435610Y13208D01*
X495300Y13208D01*
X508000Y25908D01*
X317500Y38100D02*
X317500Y13208D01*
X368300Y177800D02*
X381000Y177800D01*
X393700Y165100D01*
X393700Y95250D02*
X412750Y76200D01*
X419100Y76200D01*
X393700Y95250D02*
X393700Y165100D01*
X419100Y76200D02*
X435610Y59690D01*
X435610Y13208D01*
X203200Y63500D02*
X120650Y63500D01*
X292100Y76200D02*
X317500Y50800D01*
X317500Y38100D01*
X342900Y38100D01*
X508000Y38100D02*
X524510Y54610D01*
X535940Y54610D01*
X120650Y63500D02*
X107950Y76200D01*
X107950Y88900D01*
X107950Y219710D01*
X105810Y86760D02*
X59690Y86760D01*
X105810Y86760D02*
X107950Y88900D01*
D21*
X350520Y228600D02*
X368300Y228600D01*
X350520Y228600D02*
X344170Y222250D01*
X344170Y115570D01*
X358140Y101600D01*
X368300Y101600D01*
X372110Y101600D01*
X391160Y82550D01*
X391160Y53340D02*
X406400Y38100D01*
X391160Y53340D02*
X391160Y82550D01*
X307340Y203200D02*
X292100Y203200D01*
X345440Y241300D02*
X392430Y241300D01*
X405130Y254000D01*
X419100Y254000D01*
X345440Y241300D02*
X307340Y203200D01*
X317500Y228600D02*
X292100Y228600D01*
X317500Y228600D02*
X330200Y241300D01*
X330200Y259080D01*
X344170Y273050D01*
X440690Y273050D02*
X450850Y262890D01*
X450850Y237490D02*
X441960Y228600D01*
X419100Y228600D01*
X440690Y273050D02*
X344170Y273050D01*
X450850Y262890D02*
X450850Y237490D01*
D22*
X495300Y254000D02*
X545300Y254000D01*
X584200Y215100D01*
X533400Y228600D02*
X495300Y228600D01*
X571900Y190100D02*
X584200Y190100D01*
X571900Y190100D02*
X533400Y228600D01*
X530860Y203200D02*
X495300Y203200D01*
X530860Y203200D02*
X568960Y165100D01*
X584200Y165100D01*
X529590Y177800D02*
X495300Y177800D01*
X529590Y177800D02*
X567690Y139700D01*
X583800Y139700D01*
X584200Y140100D01*
M02*
