M48
;GenerationSoftware,Autodesk,EAGLE,9.6.2*%
;CreationDate,2022-06-18T06:29:29Z*%
FMAT,2
ICI,OFF
METRIC,TZ,000.000
T6C0.813
T5C1.000
T4C1.118
T3C1.194
T2C1.321
T1C3.000
%
G90
M71
T1
X2540Y26670
X2540Y2540
X60960Y2540
X60960Y26670
T2
X26670Y6350
X16510Y8890
X16510Y3810
T3
X5969Y8676
X5969Y13676
T4
X12954Y13081
X12954Y2921
T5
X58420Y21510
X58420Y19010
X58420Y16510
X58420Y14010
X58420Y11510
X7747Y19979
X7747Y22479
T6
X29210Y10160
X29210Y7620
X29210Y20320
X29210Y17780
X29210Y12700
X29210Y15240
X36830Y7620
X36830Y10160
X36830Y12700
X36830Y15240
X36830Y17780
X36830Y20320
X36830Y22860
X36830Y25400
X41910Y25400
X41910Y22860
X41910Y10160
X16510Y25400
X41910Y20320
X41910Y17780
X41910Y12700
X41910Y15240
X49530Y7620
X49530Y10160
X49530Y12700
X49530Y15240
X49530Y17780
X49530Y20320
X49530Y22860
X49530Y25400
X12827Y25781
X12827Y15621
X15240Y13970
X25400Y13970
X50800Y3810
X36830Y3810
X34290Y3810
X29210Y3810
X31750Y3810
X53594Y5461
X56134Y5461
X16510Y22860
X24130Y22860
X41910Y7620
X24130Y25400
X16510Y20320
X16510Y17780
X24130Y20320
X24130Y17780
X29210Y25400
X29210Y22860
X40640Y3810
M30