G04 EAGLE Gerber RS-274X export*
G75*
%MOMM*%
%FSLAX34Y34*%
%LPD*%
%IN*%
%IPPOS*%
%AMOC8*
5,1,8,0,0,1.08239X$1,22.5*%
G01*
%ADD10C,0.254000*%


D10*
X0Y0D02*
X635000Y0D01*
X635000Y292000D01*
X0Y292000D01*
X0Y0D01*
X40400Y266164D02*
X40324Y265096D01*
X40171Y264035D01*
X39943Y262988D01*
X39641Y261960D01*
X39267Y260956D01*
X38822Y259981D01*
X38308Y259041D01*
X37729Y258140D01*
X37087Y257282D01*
X36385Y256472D01*
X35628Y255715D01*
X34818Y255013D01*
X33960Y254371D01*
X33059Y253792D01*
X32119Y253278D01*
X31144Y252833D01*
X30140Y252459D01*
X29112Y252157D01*
X28065Y251929D01*
X27004Y251776D01*
X25936Y251700D01*
X24864Y251700D01*
X23796Y251776D01*
X22735Y251929D01*
X21688Y252157D01*
X20660Y252459D01*
X19656Y252833D01*
X18681Y253278D01*
X17741Y253792D01*
X16840Y254371D01*
X15982Y255013D01*
X15172Y255715D01*
X14415Y256472D01*
X13713Y257282D01*
X13071Y258140D01*
X12492Y259041D01*
X11978Y259981D01*
X11533Y260956D01*
X11159Y261960D01*
X10857Y262988D01*
X10629Y264035D01*
X10476Y265096D01*
X10400Y266164D01*
X10400Y267236D01*
X10476Y268304D01*
X10629Y269365D01*
X10857Y270412D01*
X11159Y271440D01*
X11533Y272444D01*
X11978Y273419D01*
X12492Y274359D01*
X13071Y275260D01*
X13713Y276118D01*
X14415Y276928D01*
X15172Y277685D01*
X15982Y278387D01*
X16840Y279029D01*
X17741Y279608D01*
X18681Y280122D01*
X19656Y280567D01*
X20660Y280941D01*
X21688Y281243D01*
X22735Y281471D01*
X23796Y281624D01*
X24864Y281700D01*
X25936Y281700D01*
X27004Y281624D01*
X28065Y281471D01*
X29112Y281243D01*
X30140Y280941D01*
X31144Y280567D01*
X32119Y280122D01*
X33059Y279608D01*
X33960Y279029D01*
X34818Y278387D01*
X35628Y277685D01*
X36385Y276928D01*
X37087Y276118D01*
X37729Y275260D01*
X38308Y274359D01*
X38822Y273419D01*
X39267Y272444D01*
X39641Y271440D01*
X39943Y270412D01*
X40171Y269365D01*
X40324Y268304D01*
X40400Y267236D01*
X40400Y266164D01*
X40400Y24864D02*
X40324Y23796D01*
X40171Y22735D01*
X39943Y21688D01*
X39641Y20660D01*
X39267Y19656D01*
X38822Y18681D01*
X38308Y17741D01*
X37729Y16840D01*
X37087Y15982D01*
X36385Y15172D01*
X35628Y14415D01*
X34818Y13713D01*
X33960Y13071D01*
X33059Y12492D01*
X32119Y11978D01*
X31144Y11533D01*
X30140Y11159D01*
X29112Y10857D01*
X28065Y10629D01*
X27004Y10476D01*
X25936Y10400D01*
X24864Y10400D01*
X23796Y10476D01*
X22735Y10629D01*
X21688Y10857D01*
X20660Y11159D01*
X19656Y11533D01*
X18681Y11978D01*
X17741Y12492D01*
X16840Y13071D01*
X15982Y13713D01*
X15172Y14415D01*
X14415Y15172D01*
X13713Y15982D01*
X13071Y16840D01*
X12492Y17741D01*
X11978Y18681D01*
X11533Y19656D01*
X11159Y20660D01*
X10857Y21688D01*
X10629Y22735D01*
X10476Y23796D01*
X10400Y24864D01*
X10400Y25936D01*
X10476Y27004D01*
X10629Y28065D01*
X10857Y29112D01*
X11159Y30140D01*
X11533Y31144D01*
X11978Y32119D01*
X12492Y33059D01*
X13071Y33960D01*
X13713Y34818D01*
X14415Y35628D01*
X15172Y36385D01*
X15982Y37087D01*
X16840Y37729D01*
X17741Y38308D01*
X18681Y38822D01*
X19656Y39267D01*
X20660Y39641D01*
X21688Y39943D01*
X22735Y40171D01*
X23796Y40324D01*
X24864Y40400D01*
X25936Y40400D01*
X27004Y40324D01*
X28065Y40171D01*
X29112Y39943D01*
X30140Y39641D01*
X31144Y39267D01*
X32119Y38822D01*
X33059Y38308D01*
X33960Y37729D01*
X34818Y37087D01*
X35628Y36385D01*
X36385Y35628D01*
X37087Y34818D01*
X37729Y33960D01*
X38308Y33059D01*
X38822Y32119D01*
X39267Y31144D01*
X39641Y30140D01*
X39943Y29112D01*
X40171Y28065D01*
X40324Y27004D01*
X40400Y25936D01*
X40400Y24864D01*
X624600Y24864D02*
X624524Y23796D01*
X624371Y22735D01*
X624143Y21688D01*
X623841Y20660D01*
X623467Y19656D01*
X623022Y18681D01*
X622508Y17741D01*
X621929Y16840D01*
X621287Y15982D01*
X620585Y15172D01*
X619828Y14415D01*
X619018Y13713D01*
X618160Y13071D01*
X617259Y12492D01*
X616319Y11978D01*
X615344Y11533D01*
X614340Y11159D01*
X613312Y10857D01*
X612265Y10629D01*
X611204Y10476D01*
X610136Y10400D01*
X609064Y10400D01*
X607996Y10476D01*
X606935Y10629D01*
X605888Y10857D01*
X604860Y11159D01*
X603856Y11533D01*
X602881Y11978D01*
X601941Y12492D01*
X601040Y13071D01*
X600182Y13713D01*
X599372Y14415D01*
X598615Y15172D01*
X597913Y15982D01*
X597271Y16840D01*
X596692Y17741D01*
X596178Y18681D01*
X595733Y19656D01*
X595359Y20660D01*
X595057Y21688D01*
X594829Y22735D01*
X594676Y23796D01*
X594600Y24864D01*
X594600Y25936D01*
X594676Y27004D01*
X594829Y28065D01*
X595057Y29112D01*
X595359Y30140D01*
X595733Y31144D01*
X596178Y32119D01*
X596692Y33059D01*
X597271Y33960D01*
X597913Y34818D01*
X598615Y35628D01*
X599372Y36385D01*
X600182Y37087D01*
X601040Y37729D01*
X601941Y38308D01*
X602881Y38822D01*
X603856Y39267D01*
X604860Y39641D01*
X605888Y39943D01*
X606935Y40171D01*
X607996Y40324D01*
X609064Y40400D01*
X610136Y40400D01*
X611204Y40324D01*
X612265Y40171D01*
X613312Y39943D01*
X614340Y39641D01*
X615344Y39267D01*
X616319Y38822D01*
X617259Y38308D01*
X618160Y37729D01*
X619018Y37087D01*
X619828Y36385D01*
X620585Y35628D01*
X621287Y34818D01*
X621929Y33960D01*
X622508Y33059D01*
X623022Y32119D01*
X623467Y31144D01*
X623841Y30140D01*
X624143Y29112D01*
X624371Y28065D01*
X624524Y27004D01*
X624600Y25936D01*
X624600Y24864D01*
X624600Y266164D02*
X624524Y265096D01*
X624371Y264035D01*
X624143Y262988D01*
X623841Y261960D01*
X623467Y260956D01*
X623022Y259981D01*
X622508Y259041D01*
X621929Y258140D01*
X621287Y257282D01*
X620585Y256472D01*
X619828Y255715D01*
X619018Y255013D01*
X618160Y254371D01*
X617259Y253792D01*
X616319Y253278D01*
X615344Y252833D01*
X614340Y252459D01*
X613312Y252157D01*
X612265Y251929D01*
X611204Y251776D01*
X610136Y251700D01*
X609064Y251700D01*
X607996Y251776D01*
X606935Y251929D01*
X605888Y252157D01*
X604860Y252459D01*
X603856Y252833D01*
X602881Y253278D01*
X601941Y253792D01*
X601040Y254371D01*
X600182Y255013D01*
X599372Y255715D01*
X598615Y256472D01*
X597913Y257282D01*
X597271Y258140D01*
X596692Y259041D01*
X596178Y259981D01*
X595733Y260956D01*
X595359Y261960D01*
X595057Y262988D01*
X594829Y264035D01*
X594676Y265096D01*
X594600Y266164D01*
X594600Y267236D01*
X594676Y268304D01*
X594829Y269365D01*
X595057Y270412D01*
X595359Y271440D01*
X595733Y272444D01*
X596178Y273419D01*
X596692Y274359D01*
X597271Y275260D01*
X597913Y276118D01*
X598615Y276928D01*
X599372Y277685D01*
X600182Y278387D01*
X601040Y279029D01*
X601941Y279608D01*
X602881Y280122D01*
X603856Y280567D01*
X604860Y280941D01*
X605888Y281243D01*
X606935Y281471D01*
X607996Y281624D01*
X609064Y281700D01*
X610136Y281700D01*
X611204Y281624D01*
X612265Y281471D01*
X613312Y281243D01*
X614340Y280941D01*
X615344Y280567D01*
X616319Y280122D01*
X617259Y279608D01*
X618160Y279029D01*
X619018Y278387D01*
X619828Y277685D01*
X620585Y276928D01*
X621287Y276118D01*
X621929Y275260D01*
X622508Y274359D01*
X623022Y273419D01*
X623467Y272444D01*
X623841Y271440D01*
X624143Y270412D01*
X624371Y269365D01*
X624524Y268304D01*
X624600Y267236D01*
X624600Y266164D01*
M02*
