G04 EAGLE Gerber RS-274X export*
G75*
%MOMM*%
%FSLAX34Y34*%
%LPD*%
%INSilkscreen Bottom*%
%IPPOS*%
%AMOC8*
5,1,8,0,0,1.08239X$1,22.5*%
G01*
%ADD10C,0.127000*%


D10*
X551816Y16510D02*
X551814Y16656D01*
X551808Y16802D01*
X551798Y16948D01*
X551784Y17094D01*
X551767Y17239D01*
X551745Y17383D01*
X551719Y17527D01*
X551690Y17670D01*
X551656Y17813D01*
X551619Y17954D01*
X551578Y18094D01*
X551533Y18234D01*
X551485Y18371D01*
X551433Y18508D01*
X551377Y18643D01*
X551317Y18777D01*
X551254Y18908D01*
X551187Y19038D01*
X551117Y19167D01*
X551043Y19293D01*
X550966Y19417D01*
X550886Y19539D01*
X550802Y19659D01*
X550715Y19777D01*
X550625Y19892D01*
X550532Y20005D01*
X550436Y20115D01*
X550337Y20222D01*
X550235Y20327D01*
X550130Y20429D01*
X550023Y20528D01*
X549913Y20624D01*
X549800Y20717D01*
X549685Y20807D01*
X549567Y20894D01*
X549447Y20978D01*
X549325Y21058D01*
X549201Y21135D01*
X549075Y21209D01*
X548946Y21279D01*
X548816Y21346D01*
X548685Y21409D01*
X548551Y21469D01*
X548416Y21525D01*
X548279Y21577D01*
X548142Y21625D01*
X548002Y21670D01*
X547862Y21711D01*
X547721Y21748D01*
X547578Y21782D01*
X547435Y21811D01*
X547291Y21837D01*
X547147Y21859D01*
X547002Y21876D01*
X546856Y21890D01*
X546710Y21900D01*
X546564Y21906D01*
X546418Y21908D01*
X546272Y21906D01*
X546126Y21900D01*
X545980Y21890D01*
X545834Y21876D01*
X545689Y21859D01*
X545545Y21837D01*
X545401Y21811D01*
X545258Y21782D01*
X545115Y21748D01*
X544974Y21711D01*
X544834Y21670D01*
X544694Y21625D01*
X544557Y21577D01*
X544420Y21525D01*
X544285Y21469D01*
X544151Y21409D01*
X544020Y21346D01*
X543890Y21279D01*
X543761Y21209D01*
X543635Y21135D01*
X543511Y21058D01*
X543389Y20978D01*
X543269Y20894D01*
X543151Y20807D01*
X543036Y20717D01*
X542923Y20624D01*
X542813Y20528D01*
X542706Y20429D01*
X542601Y20327D01*
X542499Y20222D01*
X542400Y20115D01*
X542304Y20005D01*
X542211Y19892D01*
X542121Y19777D01*
X542034Y19659D01*
X541950Y19539D01*
X541870Y19417D01*
X541793Y19293D01*
X541719Y19167D01*
X541649Y19038D01*
X541582Y18908D01*
X541519Y18777D01*
X541459Y18643D01*
X541403Y18508D01*
X541351Y18371D01*
X541303Y18234D01*
X541258Y18094D01*
X541217Y17954D01*
X541180Y17813D01*
X541146Y17670D01*
X541117Y17527D01*
X541091Y17383D01*
X541069Y17239D01*
X541052Y17094D01*
X541038Y16948D01*
X541028Y16802D01*
X541022Y16656D01*
X541020Y16510D01*
X541022Y16364D01*
X541028Y16218D01*
X541038Y16072D01*
X541052Y15926D01*
X541069Y15781D01*
X541091Y15637D01*
X541117Y15493D01*
X541146Y15350D01*
X541180Y15207D01*
X541217Y15066D01*
X541258Y14926D01*
X541303Y14786D01*
X541351Y14649D01*
X541403Y14512D01*
X541459Y14377D01*
X541519Y14243D01*
X541582Y14112D01*
X541649Y13982D01*
X541719Y13853D01*
X541793Y13727D01*
X541870Y13603D01*
X541950Y13481D01*
X542034Y13361D01*
X542121Y13243D01*
X542211Y13128D01*
X542304Y13015D01*
X542400Y12905D01*
X542499Y12798D01*
X542601Y12693D01*
X542706Y12591D01*
X542813Y12492D01*
X542923Y12396D01*
X543036Y12303D01*
X543151Y12213D01*
X543269Y12126D01*
X543389Y12042D01*
X543511Y11962D01*
X543635Y11885D01*
X543761Y11811D01*
X543890Y11741D01*
X544020Y11674D01*
X544151Y11611D01*
X544285Y11551D01*
X544420Y11495D01*
X544557Y11443D01*
X544694Y11395D01*
X544834Y11350D01*
X544974Y11309D01*
X545115Y11272D01*
X545258Y11238D01*
X545401Y11209D01*
X545545Y11183D01*
X545689Y11161D01*
X545834Y11144D01*
X545980Y11130D01*
X546126Y11120D01*
X546272Y11114D01*
X546418Y11112D01*
X546564Y11114D01*
X546710Y11120D01*
X546856Y11130D01*
X547002Y11144D01*
X547147Y11161D01*
X547291Y11183D01*
X547435Y11209D01*
X547578Y11238D01*
X547721Y11272D01*
X547862Y11309D01*
X548002Y11350D01*
X548142Y11395D01*
X548279Y11443D01*
X548416Y11495D01*
X548551Y11551D01*
X548685Y11611D01*
X548816Y11674D01*
X548946Y11741D01*
X549075Y11811D01*
X549201Y11885D01*
X549325Y11962D01*
X549447Y12042D01*
X549567Y12126D01*
X549685Y12213D01*
X549800Y12303D01*
X549913Y12396D01*
X550023Y12492D01*
X550130Y12591D01*
X550235Y12693D01*
X550337Y12798D01*
X550436Y12905D01*
X550532Y13015D01*
X550625Y13128D01*
X550715Y13243D01*
X550802Y13361D01*
X550886Y13481D01*
X550966Y13603D01*
X551043Y13727D01*
X551117Y13853D01*
X551187Y13982D01*
X551254Y14112D01*
X551317Y14243D01*
X551377Y14377D01*
X551433Y14512D01*
X551485Y14649D01*
X551533Y14786D01*
X551578Y14926D01*
X551619Y15066D01*
X551656Y15207D01*
X551690Y15350D01*
X551719Y15493D01*
X551745Y15637D01*
X551767Y15781D01*
X551784Y15926D01*
X551798Y16072D01*
X551808Y16218D01*
X551814Y16364D01*
X551816Y16510D01*
X546735Y13970D02*
X545148Y13970D01*
X546735Y13970D02*
X546804Y13972D01*
X546872Y13977D01*
X546940Y13987D01*
X547008Y14000D01*
X547075Y14016D01*
X547141Y14036D01*
X547205Y14060D01*
X547268Y14087D01*
X547330Y14118D01*
X547390Y14152D01*
X547448Y14189D01*
X547504Y14229D01*
X547557Y14272D01*
X547608Y14318D01*
X547657Y14367D01*
X547703Y14418D01*
X547746Y14471D01*
X547786Y14527D01*
X547823Y14585D01*
X547857Y14645D01*
X547888Y14707D01*
X547915Y14770D01*
X547939Y14834D01*
X547959Y14900D01*
X547975Y14967D01*
X547988Y15035D01*
X547998Y15103D01*
X548003Y15171D01*
X548005Y15240D01*
X548005Y17780D01*
X548003Y17849D01*
X547998Y17917D01*
X547988Y17985D01*
X547975Y18053D01*
X547959Y18120D01*
X547939Y18186D01*
X547915Y18250D01*
X547888Y18313D01*
X547857Y18375D01*
X547823Y18435D01*
X547786Y18493D01*
X547746Y18549D01*
X547703Y18602D01*
X547657Y18653D01*
X547608Y18702D01*
X547557Y18748D01*
X547504Y18791D01*
X547448Y18831D01*
X547390Y18868D01*
X547330Y18902D01*
X547268Y18933D01*
X547205Y18960D01*
X547141Y18984D01*
X547075Y19004D01*
X547008Y19020D01*
X546940Y19033D01*
X546872Y19043D01*
X546804Y19048D01*
X546735Y19050D01*
X545148Y19050D01*
X532384Y22226D02*
X532280Y22224D01*
X532175Y22218D01*
X532071Y22209D01*
X531968Y22196D01*
X531865Y22178D01*
X531763Y22158D01*
X531661Y22133D01*
X531561Y22105D01*
X531461Y22073D01*
X531363Y22037D01*
X531266Y21998D01*
X531171Y21956D01*
X531077Y21910D01*
X530985Y21860D01*
X530895Y21808D01*
X530807Y21752D01*
X530721Y21692D01*
X530637Y21630D01*
X530556Y21565D01*
X530477Y21497D01*
X530400Y21425D01*
X530327Y21352D01*
X530255Y21275D01*
X530187Y21196D01*
X530122Y21115D01*
X530060Y21031D01*
X530000Y20945D01*
X529944Y20857D01*
X529892Y20767D01*
X529842Y20675D01*
X529796Y20581D01*
X529754Y20486D01*
X529715Y20389D01*
X529679Y20291D01*
X529647Y20191D01*
X529619Y20091D01*
X529594Y19989D01*
X529574Y19887D01*
X529556Y19784D01*
X529543Y19681D01*
X529534Y19577D01*
X529528Y19472D01*
X529526Y19368D01*
X532384Y22225D02*
X532502Y22223D01*
X532621Y22217D01*
X532739Y22208D01*
X532856Y22195D01*
X532973Y22177D01*
X533090Y22157D01*
X533206Y22132D01*
X533321Y22104D01*
X533434Y22071D01*
X533547Y22036D01*
X533659Y21996D01*
X533769Y21954D01*
X533878Y21907D01*
X533986Y21857D01*
X534091Y21804D01*
X534195Y21747D01*
X534297Y21687D01*
X534397Y21624D01*
X534495Y21557D01*
X534591Y21488D01*
X534684Y21415D01*
X534775Y21339D01*
X534864Y21261D01*
X534950Y21179D01*
X535033Y21095D01*
X535114Y21009D01*
X535191Y20919D01*
X535266Y20828D01*
X535338Y20734D01*
X535407Y20637D01*
X535472Y20539D01*
X535535Y20438D01*
X535594Y20335D01*
X535650Y20231D01*
X535702Y20125D01*
X535751Y20017D01*
X535796Y19908D01*
X535838Y19797D01*
X535876Y19685D01*
X530479Y17146D02*
X530403Y17221D01*
X530328Y17300D01*
X530257Y17381D01*
X530188Y17465D01*
X530123Y17551D01*
X530061Y17639D01*
X530001Y17729D01*
X529945Y17821D01*
X529892Y17916D01*
X529843Y18012D01*
X529797Y18110D01*
X529754Y18209D01*
X529715Y18310D01*
X529680Y18412D01*
X529648Y18515D01*
X529620Y18619D01*
X529595Y18724D01*
X529574Y18831D01*
X529557Y18937D01*
X529544Y19044D01*
X529535Y19152D01*
X529529Y19260D01*
X529527Y19368D01*
X530479Y17145D02*
X535877Y10795D01*
X529527Y10795D01*
X524446Y16510D02*
X524443Y16735D01*
X524435Y16960D01*
X524422Y17184D01*
X524403Y17408D01*
X524379Y17632D01*
X524350Y17855D01*
X524315Y18077D01*
X524275Y18298D01*
X524229Y18518D01*
X524179Y18737D01*
X524123Y18955D01*
X524062Y19172D01*
X523996Y19387D01*
X523925Y19600D01*
X523848Y19811D01*
X523767Y20021D01*
X523681Y20229D01*
X523590Y20434D01*
X523494Y20637D01*
X523495Y20638D02*
X523463Y20726D01*
X523427Y20813D01*
X523388Y20899D01*
X523345Y20983D01*
X523299Y21065D01*
X523250Y21145D01*
X523198Y21223D01*
X523142Y21299D01*
X523084Y21373D01*
X523022Y21444D01*
X522958Y21513D01*
X522891Y21579D01*
X522822Y21642D01*
X522750Y21703D01*
X522676Y21761D01*
X522599Y21815D01*
X522521Y21867D01*
X522440Y21915D01*
X522358Y21960D01*
X522273Y22002D01*
X522187Y22040D01*
X522100Y22075D01*
X522012Y22107D01*
X521922Y22134D01*
X521831Y22159D01*
X521739Y22179D01*
X521647Y22196D01*
X521553Y22209D01*
X521460Y22218D01*
X521366Y22224D01*
X521272Y22226D01*
X521178Y22224D01*
X521084Y22218D01*
X520991Y22209D01*
X520897Y22196D01*
X520805Y22179D01*
X520713Y22159D01*
X520622Y22134D01*
X520532Y22107D01*
X520444Y22075D01*
X520357Y22040D01*
X520271Y22002D01*
X520186Y21960D01*
X520104Y21915D01*
X520023Y21867D01*
X519945Y21815D01*
X519868Y21761D01*
X519794Y21703D01*
X519722Y21642D01*
X519653Y21579D01*
X519586Y21513D01*
X519522Y21444D01*
X519460Y21373D01*
X519402Y21299D01*
X519346Y21223D01*
X519294Y21145D01*
X519245Y21065D01*
X519199Y20983D01*
X519156Y20899D01*
X519117Y20813D01*
X519081Y20726D01*
X519049Y20638D01*
X519049Y20637D02*
X518953Y20434D01*
X518862Y20229D01*
X518776Y20021D01*
X518695Y19811D01*
X518618Y19600D01*
X518547Y19387D01*
X518481Y19172D01*
X518420Y18955D01*
X518364Y18737D01*
X518314Y18518D01*
X518268Y18298D01*
X518228Y18077D01*
X518193Y17855D01*
X518164Y17632D01*
X518140Y17408D01*
X518121Y17184D01*
X518108Y16960D01*
X518100Y16735D01*
X518097Y16510D01*
X524446Y16510D02*
X524443Y16285D01*
X524435Y16060D01*
X524422Y15836D01*
X524403Y15612D01*
X524379Y15388D01*
X524350Y15165D01*
X524315Y14943D01*
X524275Y14722D01*
X524229Y14502D01*
X524179Y14283D01*
X524123Y14065D01*
X524062Y13848D01*
X523996Y13633D01*
X523925Y13420D01*
X523848Y13209D01*
X523767Y12999D01*
X523681Y12791D01*
X523590Y12586D01*
X523494Y12383D01*
X523495Y12383D02*
X523463Y12295D01*
X523427Y12208D01*
X523388Y12122D01*
X523345Y12038D01*
X523299Y11956D01*
X523250Y11876D01*
X523198Y11798D01*
X523142Y11722D01*
X523084Y11648D01*
X523022Y11577D01*
X522958Y11508D01*
X522891Y11442D01*
X522822Y11379D01*
X522750Y11318D01*
X522676Y11260D01*
X522599Y11206D01*
X522521Y11154D01*
X522440Y11106D01*
X522358Y11061D01*
X522273Y11019D01*
X522187Y10981D01*
X522100Y10946D01*
X522012Y10914D01*
X521922Y10887D01*
X521831Y10862D01*
X521739Y10842D01*
X521647Y10825D01*
X521553Y10812D01*
X521460Y10803D01*
X521366Y10797D01*
X521272Y10795D01*
X519049Y12383D02*
X518953Y12586D01*
X518862Y12791D01*
X518776Y12999D01*
X518695Y13209D01*
X518618Y13420D01*
X518547Y13633D01*
X518481Y13848D01*
X518420Y14065D01*
X518364Y14283D01*
X518314Y14502D01*
X518268Y14722D01*
X518228Y14943D01*
X518193Y15165D01*
X518164Y15388D01*
X518140Y15612D01*
X518121Y15836D01*
X518108Y16060D01*
X518100Y16285D01*
X518097Y16510D01*
X519049Y12383D02*
X519081Y12295D01*
X519117Y12208D01*
X519156Y12122D01*
X519199Y12038D01*
X519245Y11956D01*
X519294Y11876D01*
X519346Y11798D01*
X519402Y11722D01*
X519460Y11648D01*
X519522Y11577D01*
X519586Y11508D01*
X519653Y11442D01*
X519722Y11379D01*
X519794Y11318D01*
X519868Y11260D01*
X519945Y11206D01*
X520023Y11154D01*
X520104Y11106D01*
X520186Y11061D01*
X520271Y11019D01*
X520357Y10981D01*
X520444Y10946D01*
X520532Y10914D01*
X520622Y10887D01*
X520713Y10862D01*
X520805Y10842D01*
X520897Y10825D01*
X520991Y10812D01*
X521084Y10803D01*
X521178Y10797D01*
X521272Y10795D01*
X523812Y13335D02*
X518732Y19685D01*
X509524Y22226D02*
X509420Y22224D01*
X509315Y22218D01*
X509211Y22209D01*
X509108Y22196D01*
X509005Y22178D01*
X508903Y22158D01*
X508801Y22133D01*
X508701Y22105D01*
X508601Y22073D01*
X508503Y22037D01*
X508406Y21998D01*
X508311Y21956D01*
X508217Y21910D01*
X508125Y21860D01*
X508035Y21808D01*
X507947Y21752D01*
X507861Y21692D01*
X507777Y21630D01*
X507696Y21565D01*
X507617Y21497D01*
X507540Y21425D01*
X507467Y21352D01*
X507395Y21275D01*
X507327Y21196D01*
X507262Y21115D01*
X507200Y21031D01*
X507140Y20945D01*
X507084Y20857D01*
X507032Y20767D01*
X506982Y20675D01*
X506936Y20581D01*
X506894Y20486D01*
X506855Y20389D01*
X506819Y20291D01*
X506787Y20191D01*
X506759Y20091D01*
X506734Y19989D01*
X506714Y19887D01*
X506696Y19784D01*
X506683Y19681D01*
X506674Y19577D01*
X506668Y19472D01*
X506666Y19368D01*
X509524Y22225D02*
X509642Y22223D01*
X509761Y22217D01*
X509879Y22208D01*
X509996Y22195D01*
X510113Y22177D01*
X510230Y22157D01*
X510346Y22132D01*
X510461Y22104D01*
X510574Y22071D01*
X510687Y22036D01*
X510799Y21996D01*
X510909Y21954D01*
X511018Y21907D01*
X511126Y21857D01*
X511231Y21804D01*
X511335Y21747D01*
X511437Y21687D01*
X511537Y21624D01*
X511635Y21557D01*
X511731Y21488D01*
X511824Y21415D01*
X511915Y21339D01*
X512004Y21261D01*
X512090Y21179D01*
X512173Y21095D01*
X512254Y21009D01*
X512331Y20919D01*
X512406Y20828D01*
X512478Y20734D01*
X512547Y20637D01*
X512612Y20539D01*
X512675Y20438D01*
X512734Y20335D01*
X512790Y20231D01*
X512842Y20125D01*
X512891Y20017D01*
X512936Y19908D01*
X512978Y19797D01*
X513016Y19685D01*
X507619Y17146D02*
X507543Y17221D01*
X507468Y17300D01*
X507397Y17381D01*
X507328Y17465D01*
X507263Y17551D01*
X507201Y17639D01*
X507141Y17729D01*
X507085Y17821D01*
X507032Y17916D01*
X506983Y18012D01*
X506937Y18110D01*
X506894Y18209D01*
X506855Y18310D01*
X506820Y18412D01*
X506788Y18515D01*
X506760Y18619D01*
X506735Y18724D01*
X506714Y18831D01*
X506697Y18937D01*
X506684Y19044D01*
X506675Y19152D01*
X506669Y19260D01*
X506667Y19368D01*
X507619Y17145D02*
X513017Y10795D01*
X506667Y10795D01*
X498094Y22226D02*
X497990Y22224D01*
X497885Y22218D01*
X497781Y22209D01*
X497678Y22196D01*
X497575Y22178D01*
X497473Y22158D01*
X497371Y22133D01*
X497271Y22105D01*
X497171Y22073D01*
X497073Y22037D01*
X496976Y21998D01*
X496881Y21956D01*
X496787Y21910D01*
X496695Y21860D01*
X496605Y21808D01*
X496517Y21752D01*
X496431Y21692D01*
X496347Y21630D01*
X496266Y21565D01*
X496187Y21497D01*
X496110Y21425D01*
X496037Y21352D01*
X495965Y21275D01*
X495897Y21196D01*
X495832Y21115D01*
X495770Y21031D01*
X495710Y20945D01*
X495654Y20857D01*
X495602Y20767D01*
X495552Y20675D01*
X495506Y20581D01*
X495464Y20486D01*
X495425Y20389D01*
X495389Y20291D01*
X495357Y20191D01*
X495329Y20091D01*
X495304Y19989D01*
X495284Y19887D01*
X495266Y19784D01*
X495253Y19681D01*
X495244Y19577D01*
X495238Y19472D01*
X495236Y19368D01*
X498094Y22225D02*
X498212Y22223D01*
X498331Y22217D01*
X498449Y22208D01*
X498566Y22195D01*
X498683Y22177D01*
X498800Y22157D01*
X498916Y22132D01*
X499031Y22104D01*
X499144Y22071D01*
X499257Y22036D01*
X499369Y21996D01*
X499479Y21954D01*
X499588Y21907D01*
X499696Y21857D01*
X499801Y21804D01*
X499905Y21747D01*
X500007Y21687D01*
X500107Y21624D01*
X500205Y21557D01*
X500301Y21488D01*
X500394Y21415D01*
X500485Y21339D01*
X500574Y21261D01*
X500660Y21179D01*
X500743Y21095D01*
X500824Y21009D01*
X500901Y20919D01*
X500976Y20828D01*
X501048Y20734D01*
X501117Y20637D01*
X501182Y20539D01*
X501245Y20438D01*
X501304Y20335D01*
X501360Y20231D01*
X501412Y20125D01*
X501461Y20017D01*
X501506Y19908D01*
X501548Y19797D01*
X501586Y19685D01*
X496189Y17146D02*
X496113Y17221D01*
X496038Y17300D01*
X495967Y17381D01*
X495898Y17465D01*
X495833Y17551D01*
X495771Y17639D01*
X495711Y17729D01*
X495655Y17821D01*
X495602Y17916D01*
X495553Y18012D01*
X495507Y18110D01*
X495464Y18209D01*
X495425Y18310D01*
X495390Y18412D01*
X495358Y18515D01*
X495330Y18619D01*
X495305Y18724D01*
X495284Y18831D01*
X495267Y18937D01*
X495254Y19044D01*
X495245Y19152D01*
X495239Y19260D01*
X495237Y19368D01*
X496189Y17145D02*
X501587Y10795D01*
X495237Y10795D01*
X479235Y17145D02*
X477330Y17145D01*
X477330Y10795D01*
X481140Y10795D01*
X481240Y10797D01*
X481339Y10803D01*
X481439Y10813D01*
X481537Y10826D01*
X481636Y10844D01*
X481733Y10865D01*
X481829Y10890D01*
X481925Y10919D01*
X482019Y10952D01*
X482112Y10988D01*
X482203Y11028D01*
X482293Y11072D01*
X482381Y11119D01*
X482467Y11169D01*
X482551Y11223D01*
X482633Y11280D01*
X482712Y11340D01*
X482790Y11404D01*
X482864Y11470D01*
X482936Y11539D01*
X483005Y11611D01*
X483071Y11685D01*
X483135Y11763D01*
X483195Y11842D01*
X483252Y11924D01*
X483306Y12008D01*
X483356Y12094D01*
X483403Y12182D01*
X483447Y12272D01*
X483487Y12363D01*
X483523Y12456D01*
X483556Y12550D01*
X483585Y12646D01*
X483610Y12742D01*
X483631Y12839D01*
X483649Y12938D01*
X483662Y13036D01*
X483672Y13136D01*
X483678Y13235D01*
X483680Y13335D01*
X483680Y19685D01*
X483678Y19785D01*
X483672Y19884D01*
X483662Y19984D01*
X483649Y20082D01*
X483631Y20181D01*
X483610Y20278D01*
X483585Y20374D01*
X483556Y20470D01*
X483523Y20564D01*
X483487Y20657D01*
X483447Y20748D01*
X483403Y20838D01*
X483356Y20926D01*
X483306Y21012D01*
X483252Y21096D01*
X483195Y21178D01*
X483135Y21257D01*
X483071Y21335D01*
X483005Y21409D01*
X482936Y21481D01*
X482864Y21550D01*
X482790Y21616D01*
X482712Y21680D01*
X482633Y21740D01*
X482551Y21797D01*
X482467Y21851D01*
X482381Y21901D01*
X482293Y21948D01*
X482203Y21992D01*
X482112Y22032D01*
X482019Y22068D01*
X481925Y22101D01*
X481829Y22130D01*
X481733Y22155D01*
X481636Y22176D01*
X481537Y22194D01*
X481439Y22207D01*
X481339Y22217D01*
X481240Y22223D01*
X481140Y22225D01*
X477330Y22225D01*
X470980Y22225D02*
X470980Y10795D01*
X472250Y10795D02*
X469710Y10795D01*
X469710Y22225D02*
X472250Y22225D01*
X465011Y19050D02*
X465011Y13970D01*
X465011Y19050D02*
X465009Y19161D01*
X465003Y19271D01*
X464994Y19382D01*
X464980Y19492D01*
X464963Y19601D01*
X464942Y19710D01*
X464917Y19818D01*
X464888Y19925D01*
X464856Y20031D01*
X464820Y20136D01*
X464780Y20239D01*
X464737Y20341D01*
X464690Y20442D01*
X464639Y20541D01*
X464586Y20638D01*
X464529Y20732D01*
X464468Y20825D01*
X464405Y20916D01*
X464338Y21005D01*
X464268Y21091D01*
X464195Y21174D01*
X464120Y21256D01*
X464042Y21334D01*
X463960Y21409D01*
X463877Y21482D01*
X463791Y21552D01*
X463702Y21619D01*
X463611Y21682D01*
X463518Y21743D01*
X463424Y21800D01*
X463327Y21853D01*
X463228Y21904D01*
X463127Y21951D01*
X463025Y21994D01*
X462922Y22034D01*
X462817Y22070D01*
X462711Y22102D01*
X462604Y22131D01*
X462496Y22156D01*
X462387Y22177D01*
X462278Y22194D01*
X462168Y22208D01*
X462057Y22217D01*
X461947Y22223D01*
X461836Y22225D01*
X461725Y22223D01*
X461615Y22217D01*
X461504Y22208D01*
X461394Y22194D01*
X461285Y22177D01*
X461176Y22156D01*
X461068Y22131D01*
X460961Y22102D01*
X460855Y22070D01*
X460750Y22034D01*
X460647Y21994D01*
X460545Y21951D01*
X460444Y21904D01*
X460345Y21853D01*
X460249Y21800D01*
X460154Y21743D01*
X460061Y21682D01*
X459970Y21619D01*
X459881Y21552D01*
X459795Y21482D01*
X459712Y21409D01*
X459630Y21334D01*
X459552Y21256D01*
X459477Y21174D01*
X459404Y21091D01*
X459334Y21005D01*
X459267Y20916D01*
X459204Y20825D01*
X459143Y20732D01*
X459086Y20637D01*
X459033Y20541D01*
X458982Y20442D01*
X458935Y20341D01*
X458892Y20239D01*
X458852Y20136D01*
X458816Y20031D01*
X458784Y19925D01*
X458755Y19818D01*
X458730Y19710D01*
X458709Y19601D01*
X458692Y19492D01*
X458678Y19382D01*
X458669Y19271D01*
X458663Y19161D01*
X458661Y19050D01*
X458661Y13970D01*
X458663Y13859D01*
X458669Y13749D01*
X458678Y13638D01*
X458692Y13528D01*
X458709Y13419D01*
X458730Y13310D01*
X458755Y13202D01*
X458784Y13095D01*
X458816Y12989D01*
X458852Y12884D01*
X458892Y12781D01*
X458935Y12679D01*
X458982Y12578D01*
X459033Y12479D01*
X459086Y12382D01*
X459143Y12288D01*
X459204Y12195D01*
X459267Y12104D01*
X459334Y12015D01*
X459404Y11929D01*
X459477Y11846D01*
X459552Y11764D01*
X459630Y11686D01*
X459712Y11611D01*
X459795Y11538D01*
X459881Y11468D01*
X459970Y11401D01*
X460061Y11338D01*
X460154Y11277D01*
X460249Y11220D01*
X460345Y11167D01*
X460444Y11116D01*
X460545Y11069D01*
X460647Y11026D01*
X460750Y10986D01*
X460855Y10950D01*
X460961Y10918D01*
X461068Y10889D01*
X461176Y10864D01*
X461285Y10843D01*
X461394Y10826D01*
X461504Y10812D01*
X461615Y10803D01*
X461725Y10797D01*
X461836Y10795D01*
X461947Y10797D01*
X462057Y10803D01*
X462168Y10812D01*
X462278Y10826D01*
X462387Y10843D01*
X462496Y10864D01*
X462604Y10889D01*
X462711Y10918D01*
X462817Y10950D01*
X462922Y10986D01*
X463025Y11026D01*
X463127Y11069D01*
X463228Y11116D01*
X463327Y11167D01*
X463423Y11220D01*
X463518Y11277D01*
X463611Y11338D01*
X463702Y11401D01*
X463791Y11468D01*
X463877Y11538D01*
X463960Y11611D01*
X464042Y11686D01*
X464120Y11764D01*
X464195Y11846D01*
X464268Y11929D01*
X464338Y12015D01*
X464405Y12104D01*
X464468Y12195D01*
X464529Y12288D01*
X464586Y12382D01*
X464639Y12479D01*
X464690Y12578D01*
X464737Y12679D01*
X464780Y12781D01*
X464820Y12884D01*
X464856Y12989D01*
X464888Y13095D01*
X464917Y13202D01*
X464942Y13310D01*
X464963Y13419D01*
X464980Y13528D01*
X464994Y13638D01*
X465003Y13749D01*
X465009Y13859D01*
X465011Y13970D01*
X454216Y22225D02*
X450406Y10795D01*
X446596Y22225D01*
X438976Y22225D02*
X442786Y10795D01*
X435166Y10795D02*
X438976Y22225D01*
X436118Y13653D02*
X441833Y13653D01*
X430340Y10795D02*
X430340Y22225D01*
X423990Y10795D01*
X423990Y22225D01*
X418148Y22225D02*
X418148Y10795D01*
X411798Y10795D02*
X418148Y22225D01*
X411798Y22225D02*
X411798Y10795D01*
X405448Y10795D02*
X405448Y22225D01*
X406718Y10795D02*
X404178Y10795D01*
X404178Y22225D02*
X406718Y22225D01*
X394399Y22225D02*
X394399Y24765D01*
X387832Y10795D02*
X385292Y10795D01*
X387832Y10795D02*
X387932Y10797D01*
X388031Y10803D01*
X388131Y10813D01*
X388229Y10826D01*
X388328Y10844D01*
X388425Y10865D01*
X388521Y10890D01*
X388617Y10919D01*
X388711Y10952D01*
X388804Y10988D01*
X388895Y11028D01*
X388985Y11072D01*
X389073Y11119D01*
X389159Y11169D01*
X389243Y11223D01*
X389325Y11280D01*
X389404Y11340D01*
X389482Y11404D01*
X389556Y11470D01*
X389628Y11539D01*
X389697Y11611D01*
X389763Y11685D01*
X389827Y11763D01*
X389887Y11842D01*
X389944Y11924D01*
X389998Y12008D01*
X390048Y12094D01*
X390095Y12182D01*
X390139Y12272D01*
X390179Y12363D01*
X390215Y12456D01*
X390248Y12550D01*
X390277Y12646D01*
X390302Y12742D01*
X390323Y12839D01*
X390341Y12938D01*
X390354Y13036D01*
X390364Y13136D01*
X390370Y13235D01*
X390372Y13335D01*
X390372Y19685D01*
X390370Y19785D01*
X390364Y19884D01*
X390354Y19984D01*
X390341Y20082D01*
X390323Y20181D01*
X390302Y20278D01*
X390277Y20374D01*
X390248Y20470D01*
X390215Y20564D01*
X390179Y20657D01*
X390139Y20748D01*
X390095Y20838D01*
X390048Y20926D01*
X389998Y21012D01*
X389944Y21096D01*
X389887Y21178D01*
X389827Y21257D01*
X389763Y21335D01*
X389697Y21409D01*
X389628Y21481D01*
X389556Y21550D01*
X389482Y21616D01*
X389404Y21680D01*
X389325Y21740D01*
X389243Y21797D01*
X389159Y21851D01*
X389073Y21901D01*
X388985Y21948D01*
X388895Y21992D01*
X388804Y22032D01*
X388711Y22068D01*
X388617Y22101D01*
X388521Y22130D01*
X388425Y22155D01*
X388328Y22176D01*
X388229Y22194D01*
X388131Y22207D01*
X388031Y22217D01*
X387932Y22223D01*
X387832Y22225D01*
X385292Y22225D01*
X381445Y22225D02*
X377635Y16828D01*
X373825Y22225D01*
X377635Y16828D02*
X377635Y10795D01*
X368808Y17145D02*
X365633Y17145D01*
X365522Y17143D01*
X365412Y17137D01*
X365301Y17128D01*
X365191Y17114D01*
X365082Y17097D01*
X364973Y17076D01*
X364865Y17051D01*
X364758Y17022D01*
X364652Y16990D01*
X364547Y16954D01*
X364444Y16914D01*
X364342Y16871D01*
X364241Y16824D01*
X364142Y16773D01*
X364046Y16720D01*
X363951Y16663D01*
X363858Y16602D01*
X363767Y16539D01*
X363678Y16472D01*
X363592Y16402D01*
X363509Y16329D01*
X363427Y16254D01*
X363349Y16176D01*
X363274Y16094D01*
X363201Y16011D01*
X363131Y15925D01*
X363064Y15836D01*
X363001Y15745D01*
X362940Y15652D01*
X362883Y15557D01*
X362830Y15461D01*
X362779Y15362D01*
X362732Y15261D01*
X362689Y15159D01*
X362649Y15056D01*
X362613Y14951D01*
X362581Y14845D01*
X362552Y14738D01*
X362527Y14630D01*
X362506Y14521D01*
X362489Y14412D01*
X362475Y14302D01*
X362466Y14191D01*
X362460Y14081D01*
X362458Y13970D01*
X362460Y13859D01*
X362466Y13749D01*
X362475Y13638D01*
X362489Y13528D01*
X362506Y13419D01*
X362527Y13310D01*
X362552Y13202D01*
X362581Y13095D01*
X362613Y12989D01*
X362649Y12884D01*
X362689Y12781D01*
X362732Y12679D01*
X362779Y12578D01*
X362830Y12479D01*
X362883Y12382D01*
X362940Y12288D01*
X363001Y12195D01*
X363064Y12104D01*
X363131Y12015D01*
X363201Y11929D01*
X363274Y11846D01*
X363349Y11764D01*
X363427Y11686D01*
X363509Y11611D01*
X363592Y11538D01*
X363678Y11468D01*
X363767Y11401D01*
X363858Y11338D01*
X363951Y11277D01*
X364046Y11220D01*
X364142Y11167D01*
X364241Y11116D01*
X364342Y11069D01*
X364444Y11026D01*
X364547Y10986D01*
X364652Y10950D01*
X364758Y10918D01*
X364865Y10889D01*
X364973Y10864D01*
X365082Y10843D01*
X365191Y10826D01*
X365301Y10812D01*
X365412Y10803D01*
X365522Y10797D01*
X365633Y10795D01*
X368808Y10795D01*
X368808Y22225D01*
X365633Y22225D01*
X365533Y22223D01*
X365434Y22217D01*
X365334Y22207D01*
X365236Y22194D01*
X365137Y22176D01*
X365040Y22155D01*
X364944Y22130D01*
X364848Y22101D01*
X364754Y22068D01*
X364661Y22032D01*
X364570Y21992D01*
X364480Y21948D01*
X364392Y21901D01*
X364306Y21851D01*
X364222Y21797D01*
X364140Y21740D01*
X364061Y21680D01*
X363983Y21616D01*
X363909Y21550D01*
X363837Y21481D01*
X363768Y21409D01*
X363702Y21335D01*
X363638Y21257D01*
X363578Y21178D01*
X363521Y21096D01*
X363467Y21012D01*
X363417Y20926D01*
X363370Y20838D01*
X363326Y20748D01*
X363286Y20657D01*
X363250Y20564D01*
X363217Y20470D01*
X363188Y20374D01*
X363163Y20278D01*
X363142Y20181D01*
X363124Y20082D01*
X363111Y19984D01*
X363101Y19884D01*
X363095Y19785D01*
X363093Y19685D01*
X363095Y19585D01*
X363101Y19486D01*
X363111Y19386D01*
X363124Y19288D01*
X363142Y19189D01*
X363163Y19092D01*
X363188Y18996D01*
X363217Y18900D01*
X363250Y18806D01*
X363286Y18713D01*
X363326Y18622D01*
X363370Y18532D01*
X363417Y18444D01*
X363467Y18358D01*
X363521Y18274D01*
X363578Y18192D01*
X363638Y18113D01*
X363702Y18035D01*
X363768Y17961D01*
X363837Y17889D01*
X363909Y17820D01*
X363983Y17754D01*
X364061Y17690D01*
X364140Y17630D01*
X364222Y17573D01*
X364306Y17519D01*
X364392Y17469D01*
X364480Y17422D01*
X364570Y17378D01*
X364661Y17338D01*
X364754Y17302D01*
X364848Y17269D01*
X364944Y17240D01*
X365040Y17215D01*
X365137Y17194D01*
X365236Y17176D01*
X365334Y17163D01*
X365434Y17153D01*
X365533Y17147D01*
X365633Y17145D01*
X357950Y10795D02*
X354775Y10795D01*
X354664Y10797D01*
X354554Y10803D01*
X354443Y10812D01*
X354333Y10826D01*
X354224Y10843D01*
X354115Y10864D01*
X354007Y10889D01*
X353900Y10918D01*
X353794Y10950D01*
X353689Y10986D01*
X353586Y11026D01*
X353484Y11069D01*
X353383Y11116D01*
X353284Y11167D01*
X353188Y11220D01*
X353093Y11277D01*
X353000Y11338D01*
X352909Y11401D01*
X352820Y11468D01*
X352734Y11538D01*
X352651Y11611D01*
X352569Y11686D01*
X352491Y11764D01*
X352416Y11846D01*
X352343Y11929D01*
X352273Y12015D01*
X352206Y12104D01*
X352143Y12195D01*
X352082Y12288D01*
X352025Y12382D01*
X351972Y12479D01*
X351921Y12578D01*
X351874Y12679D01*
X351831Y12781D01*
X351791Y12884D01*
X351755Y12989D01*
X351723Y13095D01*
X351694Y13202D01*
X351669Y13310D01*
X351648Y13419D01*
X351631Y13528D01*
X351617Y13638D01*
X351608Y13749D01*
X351602Y13859D01*
X351600Y13970D01*
X351602Y14081D01*
X351608Y14191D01*
X351617Y14302D01*
X351631Y14412D01*
X351648Y14521D01*
X351669Y14630D01*
X351694Y14738D01*
X351723Y14845D01*
X351755Y14951D01*
X351791Y15056D01*
X351831Y15159D01*
X351874Y15261D01*
X351921Y15362D01*
X351972Y15461D01*
X352025Y15557D01*
X352082Y15652D01*
X352143Y15745D01*
X352206Y15836D01*
X352273Y15925D01*
X352343Y16011D01*
X352416Y16094D01*
X352491Y16176D01*
X352569Y16254D01*
X352651Y16329D01*
X352734Y16402D01*
X352820Y16472D01*
X352909Y16539D01*
X353000Y16602D01*
X353093Y16663D01*
X353188Y16720D01*
X353284Y16773D01*
X353383Y16824D01*
X353484Y16871D01*
X353586Y16914D01*
X353689Y16954D01*
X353794Y16990D01*
X353900Y17022D01*
X354007Y17051D01*
X354115Y17076D01*
X354224Y17097D01*
X354333Y17114D01*
X354443Y17128D01*
X354554Y17137D01*
X354664Y17143D01*
X354775Y17145D01*
X354140Y22225D02*
X357950Y22225D01*
X354140Y22225D02*
X354040Y22223D01*
X353941Y22217D01*
X353841Y22207D01*
X353743Y22194D01*
X353644Y22176D01*
X353547Y22155D01*
X353451Y22130D01*
X353355Y22101D01*
X353261Y22068D01*
X353168Y22032D01*
X353077Y21992D01*
X352987Y21948D01*
X352899Y21901D01*
X352813Y21851D01*
X352729Y21797D01*
X352647Y21740D01*
X352568Y21680D01*
X352490Y21616D01*
X352416Y21550D01*
X352344Y21481D01*
X352275Y21409D01*
X352209Y21335D01*
X352145Y21257D01*
X352085Y21178D01*
X352028Y21096D01*
X351974Y21012D01*
X351924Y20926D01*
X351877Y20838D01*
X351833Y20748D01*
X351793Y20657D01*
X351757Y20564D01*
X351724Y20470D01*
X351695Y20374D01*
X351670Y20278D01*
X351649Y20181D01*
X351631Y20082D01*
X351618Y19984D01*
X351608Y19884D01*
X351602Y19785D01*
X351600Y19685D01*
X351602Y19585D01*
X351608Y19486D01*
X351618Y19386D01*
X351631Y19288D01*
X351649Y19189D01*
X351670Y19092D01*
X351695Y18996D01*
X351724Y18900D01*
X351757Y18806D01*
X351793Y18713D01*
X351833Y18622D01*
X351877Y18532D01*
X351924Y18444D01*
X351974Y18358D01*
X352028Y18274D01*
X352085Y18192D01*
X352145Y18113D01*
X352209Y18035D01*
X352275Y17961D01*
X352344Y17889D01*
X352416Y17820D01*
X352490Y17754D01*
X352568Y17690D01*
X352647Y17630D01*
X352729Y17573D01*
X352813Y17519D01*
X352899Y17469D01*
X352987Y17422D01*
X353077Y17378D01*
X353168Y17338D01*
X353261Y17302D01*
X353355Y17269D01*
X353451Y17240D01*
X353547Y17215D01*
X353644Y17194D01*
X353743Y17176D01*
X353841Y17163D01*
X353941Y17153D01*
X354040Y17147D01*
X354140Y17145D01*
X356680Y17145D01*
X346056Y22225D02*
X346056Y10795D01*
X346056Y22225D02*
X342881Y22225D01*
X342770Y22223D01*
X342660Y22217D01*
X342549Y22208D01*
X342439Y22194D01*
X342330Y22177D01*
X342221Y22156D01*
X342113Y22131D01*
X342006Y22102D01*
X341900Y22070D01*
X341795Y22034D01*
X341692Y21994D01*
X341590Y21951D01*
X341489Y21904D01*
X341390Y21853D01*
X341294Y21800D01*
X341199Y21743D01*
X341106Y21682D01*
X341015Y21619D01*
X340926Y21552D01*
X340840Y21482D01*
X340757Y21409D01*
X340675Y21334D01*
X340597Y21256D01*
X340522Y21174D01*
X340449Y21091D01*
X340379Y21005D01*
X340312Y20916D01*
X340249Y20825D01*
X340188Y20732D01*
X340131Y20637D01*
X340078Y20541D01*
X340027Y20442D01*
X339980Y20341D01*
X339937Y20239D01*
X339897Y20136D01*
X339861Y20031D01*
X339829Y19925D01*
X339800Y19818D01*
X339775Y19710D01*
X339754Y19601D01*
X339737Y19492D01*
X339723Y19382D01*
X339714Y19271D01*
X339708Y19161D01*
X339706Y19050D01*
X339708Y18939D01*
X339714Y18829D01*
X339723Y18718D01*
X339737Y18608D01*
X339754Y18499D01*
X339775Y18390D01*
X339800Y18282D01*
X339829Y18175D01*
X339861Y18069D01*
X339897Y17964D01*
X339937Y17861D01*
X339980Y17759D01*
X340027Y17658D01*
X340078Y17559D01*
X340131Y17462D01*
X340188Y17368D01*
X340249Y17275D01*
X340312Y17184D01*
X340379Y17095D01*
X340449Y17009D01*
X340522Y16926D01*
X340597Y16844D01*
X340675Y16766D01*
X340757Y16691D01*
X340840Y16618D01*
X340926Y16548D01*
X341015Y16481D01*
X341106Y16418D01*
X341199Y16357D01*
X341294Y16300D01*
X341390Y16247D01*
X341489Y16196D01*
X341590Y16149D01*
X341692Y16106D01*
X341795Y16066D01*
X341900Y16030D01*
X342006Y15998D01*
X342113Y15969D01*
X342221Y15944D01*
X342330Y15923D01*
X342439Y15906D01*
X342549Y15892D01*
X342660Y15883D01*
X342770Y15877D01*
X342881Y15875D01*
X346056Y15875D01*
X342246Y15875D02*
X339706Y10795D01*
X334328Y10795D02*
X334328Y22225D01*
X327978Y10795D01*
X327978Y22225D01*
X321564Y20637D02*
X321660Y20434D01*
X321751Y20229D01*
X321837Y20021D01*
X321918Y19811D01*
X321995Y19600D01*
X322066Y19387D01*
X322132Y19172D01*
X322193Y18955D01*
X322249Y18737D01*
X322299Y18518D01*
X322345Y18298D01*
X322385Y18077D01*
X322420Y17855D01*
X322449Y17632D01*
X322473Y17408D01*
X322492Y17184D01*
X322505Y16960D01*
X322513Y16735D01*
X322516Y16510D01*
X321565Y20638D02*
X321533Y20726D01*
X321497Y20813D01*
X321458Y20899D01*
X321415Y20983D01*
X321369Y21065D01*
X321320Y21145D01*
X321268Y21223D01*
X321212Y21299D01*
X321154Y21373D01*
X321092Y21444D01*
X321028Y21513D01*
X320961Y21579D01*
X320892Y21642D01*
X320820Y21703D01*
X320746Y21761D01*
X320669Y21815D01*
X320591Y21867D01*
X320510Y21915D01*
X320428Y21960D01*
X320343Y22002D01*
X320257Y22040D01*
X320170Y22075D01*
X320082Y22107D01*
X319992Y22134D01*
X319901Y22159D01*
X319809Y22179D01*
X319717Y22196D01*
X319623Y22209D01*
X319530Y22218D01*
X319436Y22224D01*
X319342Y22226D01*
X319248Y22224D01*
X319154Y22218D01*
X319061Y22209D01*
X318967Y22196D01*
X318875Y22179D01*
X318783Y22159D01*
X318692Y22134D01*
X318602Y22107D01*
X318514Y22075D01*
X318427Y22040D01*
X318341Y22002D01*
X318256Y21960D01*
X318174Y21915D01*
X318093Y21867D01*
X318015Y21815D01*
X317938Y21761D01*
X317864Y21703D01*
X317792Y21642D01*
X317723Y21579D01*
X317656Y21513D01*
X317592Y21444D01*
X317530Y21373D01*
X317472Y21299D01*
X317416Y21223D01*
X317364Y21145D01*
X317315Y21065D01*
X317269Y20983D01*
X317226Y20899D01*
X317187Y20813D01*
X317151Y20726D01*
X317119Y20638D01*
X317119Y20637D02*
X317023Y20434D01*
X316932Y20229D01*
X316846Y20021D01*
X316765Y19811D01*
X316688Y19600D01*
X316617Y19387D01*
X316551Y19172D01*
X316490Y18955D01*
X316434Y18737D01*
X316384Y18518D01*
X316338Y18298D01*
X316298Y18077D01*
X316263Y17855D01*
X316234Y17632D01*
X316210Y17408D01*
X316191Y17184D01*
X316178Y16960D01*
X316170Y16735D01*
X316167Y16510D01*
X322516Y16510D02*
X322513Y16285D01*
X322505Y16060D01*
X322492Y15836D01*
X322473Y15612D01*
X322449Y15388D01*
X322420Y15165D01*
X322385Y14943D01*
X322345Y14722D01*
X322299Y14502D01*
X322249Y14283D01*
X322193Y14065D01*
X322132Y13848D01*
X322066Y13633D01*
X321995Y13420D01*
X321918Y13209D01*
X321837Y12999D01*
X321751Y12791D01*
X321660Y12586D01*
X321564Y12383D01*
X321565Y12383D02*
X321533Y12295D01*
X321497Y12208D01*
X321458Y12122D01*
X321415Y12038D01*
X321369Y11956D01*
X321320Y11876D01*
X321268Y11798D01*
X321212Y11722D01*
X321154Y11648D01*
X321092Y11577D01*
X321028Y11508D01*
X320961Y11442D01*
X320892Y11379D01*
X320820Y11318D01*
X320746Y11260D01*
X320669Y11206D01*
X320591Y11154D01*
X320510Y11106D01*
X320428Y11061D01*
X320343Y11019D01*
X320257Y10981D01*
X320170Y10946D01*
X320082Y10914D01*
X319992Y10887D01*
X319901Y10862D01*
X319809Y10842D01*
X319717Y10825D01*
X319623Y10812D01*
X319530Y10803D01*
X319436Y10797D01*
X319342Y10795D01*
X317119Y12383D02*
X317023Y12586D01*
X316932Y12791D01*
X316846Y12999D01*
X316765Y13209D01*
X316688Y13420D01*
X316617Y13633D01*
X316551Y13848D01*
X316490Y14065D01*
X316434Y14283D01*
X316384Y14502D01*
X316338Y14722D01*
X316298Y14943D01*
X316263Y15165D01*
X316234Y15388D01*
X316210Y15612D01*
X316191Y15836D01*
X316178Y16060D01*
X316170Y16285D01*
X316167Y16510D01*
X317119Y12383D02*
X317151Y12295D01*
X317187Y12208D01*
X317226Y12122D01*
X317269Y12038D01*
X317315Y11956D01*
X317364Y11876D01*
X317416Y11798D01*
X317472Y11722D01*
X317530Y11648D01*
X317592Y11577D01*
X317656Y11508D01*
X317723Y11442D01*
X317792Y11379D01*
X317864Y11318D01*
X317938Y11260D01*
X318015Y11206D01*
X318093Y11154D01*
X318174Y11106D01*
X318256Y11061D01*
X318341Y11019D01*
X318427Y10981D01*
X318514Y10946D01*
X318602Y10914D01*
X318692Y10887D01*
X318783Y10862D01*
X318875Y10842D01*
X318967Y10825D01*
X319061Y10812D01*
X319154Y10803D01*
X319248Y10797D01*
X319342Y10795D01*
X321882Y13335D02*
X316802Y19685D01*
X310198Y22225D02*
X310198Y10795D01*
X311468Y10795D02*
X308928Y10795D01*
X308928Y22225D02*
X311468Y22225D01*
X303848Y22225D02*
X303848Y10795D01*
X303848Y22225D02*
X300673Y22225D01*
X300562Y22223D01*
X300452Y22217D01*
X300341Y22208D01*
X300231Y22194D01*
X300122Y22177D01*
X300013Y22156D01*
X299905Y22131D01*
X299798Y22102D01*
X299692Y22070D01*
X299587Y22034D01*
X299484Y21994D01*
X299382Y21951D01*
X299281Y21904D01*
X299182Y21853D01*
X299086Y21800D01*
X298991Y21743D01*
X298898Y21682D01*
X298807Y21619D01*
X298718Y21552D01*
X298632Y21482D01*
X298549Y21409D01*
X298467Y21334D01*
X298389Y21256D01*
X298314Y21174D01*
X298241Y21091D01*
X298171Y21005D01*
X298104Y20916D01*
X298041Y20825D01*
X297980Y20732D01*
X297923Y20637D01*
X297870Y20541D01*
X297819Y20442D01*
X297772Y20341D01*
X297729Y20239D01*
X297689Y20136D01*
X297653Y20031D01*
X297621Y19925D01*
X297592Y19818D01*
X297567Y19710D01*
X297546Y19601D01*
X297529Y19492D01*
X297515Y19382D01*
X297506Y19271D01*
X297500Y19161D01*
X297498Y19050D01*
X297498Y13970D01*
X297500Y13859D01*
X297506Y13749D01*
X297515Y13638D01*
X297529Y13528D01*
X297546Y13419D01*
X297567Y13310D01*
X297592Y13202D01*
X297621Y13095D01*
X297653Y12989D01*
X297689Y12884D01*
X297729Y12781D01*
X297772Y12679D01*
X297819Y12578D01*
X297870Y12479D01*
X297923Y12382D01*
X297980Y12288D01*
X298041Y12195D01*
X298104Y12104D01*
X298171Y12015D01*
X298241Y11929D01*
X298314Y11846D01*
X298389Y11764D01*
X298467Y11686D01*
X298549Y11611D01*
X298632Y11538D01*
X298718Y11468D01*
X298807Y11401D01*
X298898Y11338D01*
X298991Y11277D01*
X299086Y11220D01*
X299182Y11167D01*
X299281Y11116D01*
X299382Y11069D01*
X299484Y11026D01*
X299587Y10986D01*
X299692Y10950D01*
X299798Y10918D01*
X299905Y10889D01*
X300013Y10864D01*
X300122Y10843D01*
X300231Y10826D01*
X300341Y10812D01*
X300452Y10803D01*
X300562Y10797D01*
X300673Y10795D01*
X303848Y10795D01*
X293053Y22225D02*
X293053Y24765D01*
X282321Y17145D02*
X279146Y17145D01*
X279035Y17143D01*
X278925Y17137D01*
X278814Y17128D01*
X278704Y17114D01*
X278595Y17097D01*
X278486Y17076D01*
X278378Y17051D01*
X278271Y17022D01*
X278165Y16990D01*
X278060Y16954D01*
X277957Y16914D01*
X277855Y16871D01*
X277754Y16824D01*
X277655Y16773D01*
X277559Y16720D01*
X277464Y16663D01*
X277371Y16602D01*
X277280Y16539D01*
X277191Y16472D01*
X277105Y16402D01*
X277022Y16329D01*
X276940Y16254D01*
X276862Y16176D01*
X276787Y16094D01*
X276714Y16011D01*
X276644Y15925D01*
X276577Y15836D01*
X276514Y15745D01*
X276453Y15652D01*
X276396Y15557D01*
X276343Y15461D01*
X276292Y15362D01*
X276245Y15261D01*
X276202Y15159D01*
X276162Y15056D01*
X276126Y14951D01*
X276094Y14845D01*
X276065Y14738D01*
X276040Y14630D01*
X276019Y14521D01*
X276002Y14412D01*
X275988Y14302D01*
X275979Y14191D01*
X275973Y14081D01*
X275971Y13970D01*
X275973Y13859D01*
X275979Y13749D01*
X275988Y13638D01*
X276002Y13528D01*
X276019Y13419D01*
X276040Y13310D01*
X276065Y13202D01*
X276094Y13095D01*
X276126Y12989D01*
X276162Y12884D01*
X276202Y12781D01*
X276245Y12679D01*
X276292Y12578D01*
X276343Y12479D01*
X276396Y12382D01*
X276453Y12288D01*
X276514Y12195D01*
X276577Y12104D01*
X276644Y12015D01*
X276714Y11929D01*
X276787Y11846D01*
X276862Y11764D01*
X276940Y11686D01*
X277022Y11611D01*
X277105Y11538D01*
X277191Y11468D01*
X277280Y11401D01*
X277371Y11338D01*
X277464Y11277D01*
X277559Y11220D01*
X277655Y11167D01*
X277754Y11116D01*
X277855Y11069D01*
X277957Y11026D01*
X278060Y10986D01*
X278165Y10950D01*
X278271Y10918D01*
X278378Y10889D01*
X278486Y10864D01*
X278595Y10843D01*
X278704Y10826D01*
X278814Y10812D01*
X278925Y10803D01*
X279035Y10797D01*
X279146Y10795D01*
X282321Y10795D01*
X282321Y22225D01*
X279146Y22225D01*
X279046Y22223D01*
X278947Y22217D01*
X278847Y22207D01*
X278749Y22194D01*
X278650Y22176D01*
X278553Y22155D01*
X278457Y22130D01*
X278361Y22101D01*
X278267Y22068D01*
X278174Y22032D01*
X278083Y21992D01*
X277993Y21948D01*
X277905Y21901D01*
X277819Y21851D01*
X277735Y21797D01*
X277653Y21740D01*
X277574Y21680D01*
X277496Y21616D01*
X277422Y21550D01*
X277350Y21481D01*
X277281Y21409D01*
X277215Y21335D01*
X277151Y21257D01*
X277091Y21178D01*
X277034Y21096D01*
X276980Y21012D01*
X276930Y20926D01*
X276883Y20838D01*
X276839Y20748D01*
X276799Y20657D01*
X276763Y20564D01*
X276730Y20470D01*
X276701Y20374D01*
X276676Y20278D01*
X276655Y20181D01*
X276637Y20082D01*
X276624Y19984D01*
X276614Y19884D01*
X276608Y19785D01*
X276606Y19685D01*
X276608Y19585D01*
X276614Y19486D01*
X276624Y19386D01*
X276637Y19288D01*
X276655Y19189D01*
X276676Y19092D01*
X276701Y18996D01*
X276730Y18900D01*
X276763Y18806D01*
X276799Y18713D01*
X276839Y18622D01*
X276883Y18532D01*
X276930Y18444D01*
X276980Y18358D01*
X277034Y18274D01*
X277091Y18192D01*
X277151Y18113D01*
X277215Y18035D01*
X277281Y17961D01*
X277350Y17889D01*
X277422Y17820D01*
X277496Y17754D01*
X277574Y17690D01*
X277653Y17630D01*
X277735Y17573D01*
X277819Y17519D01*
X277905Y17469D01*
X277993Y17422D01*
X278083Y17378D01*
X278174Y17338D01*
X278267Y17302D01*
X278361Y17269D01*
X278457Y17240D01*
X278553Y17215D01*
X278650Y17194D01*
X278749Y17176D01*
X278847Y17163D01*
X278947Y17153D01*
X279046Y17147D01*
X279146Y17145D01*
X271056Y10795D02*
X265976Y10795D01*
X271056Y10795D02*
X271056Y22225D01*
X265976Y22225D01*
X267246Y17145D02*
X271056Y17145D01*
X261093Y22225D02*
X261093Y10795D01*
X261093Y22225D02*
X257918Y22225D01*
X257807Y22223D01*
X257697Y22217D01*
X257586Y22208D01*
X257476Y22194D01*
X257367Y22177D01*
X257258Y22156D01*
X257150Y22131D01*
X257043Y22102D01*
X256937Y22070D01*
X256832Y22034D01*
X256729Y21994D01*
X256627Y21951D01*
X256526Y21904D01*
X256427Y21853D01*
X256331Y21800D01*
X256236Y21743D01*
X256143Y21682D01*
X256052Y21619D01*
X255963Y21552D01*
X255877Y21482D01*
X255794Y21409D01*
X255712Y21334D01*
X255634Y21256D01*
X255559Y21174D01*
X255486Y21091D01*
X255416Y21005D01*
X255349Y20916D01*
X255286Y20825D01*
X255225Y20732D01*
X255168Y20637D01*
X255115Y20541D01*
X255064Y20442D01*
X255017Y20341D01*
X254974Y20239D01*
X254934Y20136D01*
X254898Y20031D01*
X254866Y19925D01*
X254837Y19818D01*
X254812Y19710D01*
X254791Y19601D01*
X254774Y19492D01*
X254760Y19382D01*
X254751Y19271D01*
X254745Y19161D01*
X254743Y19050D01*
X254745Y18939D01*
X254751Y18829D01*
X254760Y18718D01*
X254774Y18608D01*
X254791Y18499D01*
X254812Y18390D01*
X254837Y18282D01*
X254866Y18175D01*
X254898Y18069D01*
X254934Y17964D01*
X254974Y17861D01*
X255017Y17759D01*
X255064Y17658D01*
X255115Y17559D01*
X255168Y17462D01*
X255225Y17368D01*
X255286Y17275D01*
X255349Y17184D01*
X255416Y17095D01*
X255486Y17009D01*
X255559Y16926D01*
X255634Y16844D01*
X255712Y16766D01*
X255794Y16691D01*
X255877Y16618D01*
X255963Y16548D01*
X256052Y16481D01*
X256143Y16418D01*
X256236Y16357D01*
X256331Y16300D01*
X256427Y16247D01*
X256526Y16196D01*
X256627Y16149D01*
X256729Y16106D01*
X256832Y16066D01*
X256937Y16030D01*
X257043Y15998D01*
X257150Y15969D01*
X257258Y15944D01*
X257367Y15923D01*
X257476Y15906D01*
X257586Y15892D01*
X257697Y15883D01*
X257807Y15877D01*
X257918Y15875D01*
X261093Y15875D01*
X257283Y15875D02*
X254743Y10795D01*
X249365Y10795D02*
X249365Y22225D01*
X243015Y10795D01*
X243015Y22225D01*
X234379Y22225D02*
X238189Y10795D01*
X230569Y10795D02*
X234379Y22225D01*
X231521Y13653D02*
X237236Y13653D01*
X225660Y10795D02*
X225660Y22225D01*
X222485Y22225D01*
X222374Y22223D01*
X222264Y22217D01*
X222153Y22208D01*
X222043Y22194D01*
X221934Y22177D01*
X221825Y22156D01*
X221717Y22131D01*
X221610Y22102D01*
X221504Y22070D01*
X221399Y22034D01*
X221296Y21994D01*
X221194Y21951D01*
X221093Y21904D01*
X220994Y21853D01*
X220898Y21800D01*
X220803Y21743D01*
X220710Y21682D01*
X220619Y21619D01*
X220530Y21552D01*
X220444Y21482D01*
X220361Y21409D01*
X220279Y21334D01*
X220201Y21256D01*
X220126Y21174D01*
X220053Y21091D01*
X219983Y21005D01*
X219916Y20916D01*
X219853Y20825D01*
X219792Y20732D01*
X219735Y20637D01*
X219682Y20541D01*
X219631Y20442D01*
X219584Y20341D01*
X219541Y20239D01*
X219501Y20136D01*
X219465Y20031D01*
X219433Y19925D01*
X219404Y19818D01*
X219379Y19710D01*
X219358Y19601D01*
X219341Y19492D01*
X219327Y19382D01*
X219318Y19271D01*
X219312Y19161D01*
X219310Y19050D01*
X219312Y18939D01*
X219318Y18829D01*
X219327Y18718D01*
X219341Y18608D01*
X219358Y18499D01*
X219379Y18390D01*
X219404Y18282D01*
X219433Y18175D01*
X219465Y18069D01*
X219501Y17964D01*
X219541Y17861D01*
X219584Y17759D01*
X219631Y17658D01*
X219682Y17559D01*
X219735Y17462D01*
X219792Y17368D01*
X219853Y17275D01*
X219916Y17184D01*
X219983Y17095D01*
X220053Y17009D01*
X220126Y16926D01*
X220201Y16844D01*
X220279Y16766D01*
X220361Y16691D01*
X220444Y16618D01*
X220530Y16548D01*
X220619Y16481D01*
X220710Y16418D01*
X220803Y16357D01*
X220898Y16300D01*
X220994Y16247D01*
X221093Y16196D01*
X221194Y16149D01*
X221296Y16106D01*
X221399Y16066D01*
X221504Y16030D01*
X221610Y15998D01*
X221717Y15969D01*
X221825Y15944D01*
X221934Y15923D01*
X222043Y15906D01*
X222153Y15892D01*
X222264Y15883D01*
X222374Y15877D01*
X222485Y15875D01*
X225660Y15875D01*
X221850Y15875D02*
X219310Y10795D01*
X213932Y10795D02*
X213932Y22225D01*
X210757Y22225D01*
X210646Y22223D01*
X210536Y22217D01*
X210425Y22208D01*
X210315Y22194D01*
X210206Y22177D01*
X210097Y22156D01*
X209989Y22131D01*
X209882Y22102D01*
X209776Y22070D01*
X209671Y22034D01*
X209568Y21994D01*
X209466Y21951D01*
X209365Y21904D01*
X209266Y21853D01*
X209170Y21800D01*
X209075Y21743D01*
X208982Y21682D01*
X208891Y21619D01*
X208802Y21552D01*
X208716Y21482D01*
X208633Y21409D01*
X208551Y21334D01*
X208473Y21256D01*
X208398Y21174D01*
X208325Y21091D01*
X208255Y21005D01*
X208188Y20916D01*
X208125Y20825D01*
X208064Y20732D01*
X208007Y20637D01*
X207954Y20541D01*
X207903Y20442D01*
X207856Y20341D01*
X207813Y20239D01*
X207773Y20136D01*
X207737Y20031D01*
X207705Y19925D01*
X207676Y19818D01*
X207651Y19710D01*
X207630Y19601D01*
X207613Y19492D01*
X207599Y19382D01*
X207590Y19271D01*
X207584Y19161D01*
X207582Y19050D01*
X207582Y13970D01*
X207584Y13859D01*
X207590Y13749D01*
X207599Y13638D01*
X207613Y13528D01*
X207630Y13419D01*
X207651Y13310D01*
X207676Y13202D01*
X207705Y13095D01*
X207737Y12989D01*
X207773Y12884D01*
X207813Y12781D01*
X207856Y12679D01*
X207903Y12578D01*
X207954Y12479D01*
X208007Y12382D01*
X208064Y12288D01*
X208125Y12195D01*
X208188Y12104D01*
X208255Y12015D01*
X208325Y11929D01*
X208398Y11846D01*
X208473Y11764D01*
X208551Y11686D01*
X208633Y11611D01*
X208716Y11538D01*
X208802Y11468D01*
X208891Y11401D01*
X208982Y11338D01*
X209075Y11277D01*
X209170Y11220D01*
X209266Y11167D01*
X209365Y11116D01*
X209466Y11069D01*
X209568Y11026D01*
X209671Y10986D01*
X209776Y10950D01*
X209882Y10918D01*
X209989Y10889D01*
X210097Y10864D01*
X210206Y10843D01*
X210315Y10826D01*
X210425Y10812D01*
X210536Y10803D01*
X210646Y10797D01*
X210757Y10795D01*
X213932Y10795D01*
X202121Y13970D02*
X202121Y19050D01*
X202119Y19161D01*
X202113Y19271D01*
X202104Y19382D01*
X202090Y19492D01*
X202073Y19601D01*
X202052Y19710D01*
X202027Y19818D01*
X201998Y19925D01*
X201966Y20031D01*
X201930Y20136D01*
X201890Y20239D01*
X201847Y20341D01*
X201800Y20442D01*
X201749Y20541D01*
X201696Y20638D01*
X201639Y20732D01*
X201578Y20825D01*
X201515Y20916D01*
X201448Y21005D01*
X201378Y21091D01*
X201305Y21174D01*
X201230Y21256D01*
X201152Y21334D01*
X201070Y21409D01*
X200987Y21482D01*
X200901Y21552D01*
X200812Y21619D01*
X200721Y21682D01*
X200628Y21743D01*
X200534Y21800D01*
X200437Y21853D01*
X200338Y21904D01*
X200237Y21951D01*
X200135Y21994D01*
X200032Y22034D01*
X199927Y22070D01*
X199821Y22102D01*
X199714Y22131D01*
X199606Y22156D01*
X199497Y22177D01*
X199388Y22194D01*
X199278Y22208D01*
X199167Y22217D01*
X199057Y22223D01*
X198946Y22225D01*
X198835Y22223D01*
X198725Y22217D01*
X198614Y22208D01*
X198504Y22194D01*
X198395Y22177D01*
X198286Y22156D01*
X198178Y22131D01*
X198071Y22102D01*
X197965Y22070D01*
X197860Y22034D01*
X197757Y21994D01*
X197655Y21951D01*
X197554Y21904D01*
X197455Y21853D01*
X197359Y21800D01*
X197264Y21743D01*
X197171Y21682D01*
X197080Y21619D01*
X196991Y21552D01*
X196905Y21482D01*
X196822Y21409D01*
X196740Y21334D01*
X196662Y21256D01*
X196587Y21174D01*
X196514Y21091D01*
X196444Y21005D01*
X196377Y20916D01*
X196314Y20825D01*
X196253Y20732D01*
X196196Y20637D01*
X196143Y20541D01*
X196092Y20442D01*
X196045Y20341D01*
X196002Y20239D01*
X195962Y20136D01*
X195926Y20031D01*
X195894Y19925D01*
X195865Y19818D01*
X195840Y19710D01*
X195819Y19601D01*
X195802Y19492D01*
X195788Y19382D01*
X195779Y19271D01*
X195773Y19161D01*
X195771Y19050D01*
X195771Y13970D01*
X195773Y13859D01*
X195779Y13749D01*
X195788Y13638D01*
X195802Y13528D01*
X195819Y13419D01*
X195840Y13310D01*
X195865Y13202D01*
X195894Y13095D01*
X195926Y12989D01*
X195962Y12884D01*
X196002Y12781D01*
X196045Y12679D01*
X196092Y12578D01*
X196143Y12479D01*
X196196Y12382D01*
X196253Y12288D01*
X196314Y12195D01*
X196377Y12104D01*
X196444Y12015D01*
X196514Y11929D01*
X196587Y11846D01*
X196662Y11764D01*
X196740Y11686D01*
X196822Y11611D01*
X196905Y11538D01*
X196991Y11468D01*
X197080Y11401D01*
X197171Y11338D01*
X197264Y11277D01*
X197359Y11220D01*
X197455Y11167D01*
X197554Y11116D01*
X197655Y11069D01*
X197757Y11026D01*
X197860Y10986D01*
X197965Y10950D01*
X198071Y10918D01*
X198178Y10889D01*
X198286Y10864D01*
X198395Y10843D01*
X198504Y10826D01*
X198614Y10812D01*
X198725Y10803D01*
X198835Y10797D01*
X198946Y10795D01*
X199057Y10797D01*
X199167Y10803D01*
X199278Y10812D01*
X199388Y10826D01*
X199497Y10843D01*
X199606Y10864D01*
X199714Y10889D01*
X199821Y10918D01*
X199927Y10950D01*
X200032Y10986D01*
X200135Y11026D01*
X200237Y11069D01*
X200338Y11116D01*
X200437Y11167D01*
X200533Y11220D01*
X200628Y11277D01*
X200721Y11338D01*
X200812Y11401D01*
X200901Y11468D01*
X200987Y11538D01*
X201070Y11611D01*
X201152Y11686D01*
X201230Y11764D01*
X201305Y11846D01*
X201378Y11929D01*
X201448Y12015D01*
X201515Y12104D01*
X201578Y12195D01*
X201639Y12288D01*
X201696Y12382D01*
X201749Y12479D01*
X201800Y12578D01*
X201847Y12679D01*
X201890Y12781D01*
X201930Y12884D01*
X201966Y12989D01*
X201998Y13095D01*
X202027Y13202D01*
X202052Y13310D01*
X202073Y13419D01*
X202090Y13528D01*
X202104Y13638D01*
X202113Y13749D01*
X202119Y13859D01*
X202121Y13970D01*
X550545Y268605D02*
X553085Y280035D01*
X548005Y276225D02*
X550545Y268605D01*
X545465Y268605D02*
X548005Y276225D01*
X542925Y280035D02*
X545465Y268605D01*
X536067Y268605D02*
X538607Y280035D01*
X533527Y276225D02*
X536067Y268605D01*
X530987Y268605D02*
X533527Y276225D01*
X528447Y280035D02*
X530987Y268605D01*
X521589Y268605D02*
X524129Y280035D01*
X519049Y276225D02*
X521589Y268605D01*
X516509Y268605D02*
X519049Y276225D01*
X513969Y280035D02*
X516509Y268605D01*
X509841Y268605D02*
X509841Y269240D01*
X509206Y269240D01*
X509206Y268605D01*
X509841Y268605D01*
X501269Y268605D02*
X501169Y268607D01*
X501070Y268613D01*
X500970Y268623D01*
X500872Y268636D01*
X500773Y268654D01*
X500676Y268675D01*
X500580Y268700D01*
X500484Y268729D01*
X500390Y268762D01*
X500297Y268798D01*
X500206Y268838D01*
X500116Y268882D01*
X500028Y268929D01*
X499942Y268979D01*
X499858Y269033D01*
X499776Y269090D01*
X499697Y269150D01*
X499619Y269214D01*
X499545Y269280D01*
X499473Y269349D01*
X499404Y269421D01*
X499338Y269495D01*
X499274Y269573D01*
X499214Y269652D01*
X499157Y269734D01*
X499103Y269818D01*
X499053Y269904D01*
X499006Y269992D01*
X498962Y270082D01*
X498922Y270173D01*
X498886Y270266D01*
X498853Y270360D01*
X498824Y270456D01*
X498799Y270552D01*
X498778Y270649D01*
X498760Y270748D01*
X498747Y270846D01*
X498737Y270946D01*
X498731Y271045D01*
X498729Y271145D01*
X501269Y268605D02*
X501410Y268607D01*
X501551Y268612D01*
X501692Y268622D01*
X501833Y268635D01*
X501973Y268651D01*
X502113Y268672D01*
X502252Y268696D01*
X502391Y268724D01*
X502528Y268755D01*
X502665Y268790D01*
X502801Y268828D01*
X502936Y268870D01*
X503069Y268916D01*
X503202Y268965D01*
X503333Y269018D01*
X503462Y269074D01*
X503591Y269133D01*
X503717Y269196D01*
X503842Y269262D01*
X503965Y269331D01*
X504086Y269404D01*
X504205Y269480D01*
X504323Y269559D01*
X504438Y269640D01*
X504550Y269725D01*
X504661Y269813D01*
X504769Y269904D01*
X504875Y269997D01*
X504978Y270094D01*
X505079Y270193D01*
X504761Y277495D02*
X504759Y277595D01*
X504753Y277694D01*
X504743Y277794D01*
X504730Y277892D01*
X504712Y277991D01*
X504691Y278088D01*
X504666Y278184D01*
X504637Y278280D01*
X504604Y278374D01*
X504568Y278467D01*
X504528Y278558D01*
X504484Y278648D01*
X504437Y278736D01*
X504387Y278822D01*
X504333Y278906D01*
X504276Y278988D01*
X504216Y279067D01*
X504152Y279145D01*
X504086Y279219D01*
X504017Y279291D01*
X503945Y279360D01*
X503871Y279426D01*
X503793Y279490D01*
X503714Y279550D01*
X503632Y279607D01*
X503548Y279661D01*
X503462Y279711D01*
X503374Y279758D01*
X503284Y279802D01*
X503193Y279842D01*
X503100Y279878D01*
X503006Y279911D01*
X502910Y279940D01*
X502814Y279965D01*
X502717Y279986D01*
X502618Y280004D01*
X502520Y280017D01*
X502420Y280027D01*
X502321Y280033D01*
X502221Y280035D01*
X502221Y280036D02*
X502088Y280034D01*
X501955Y280029D01*
X501822Y280019D01*
X501689Y280006D01*
X501557Y279989D01*
X501425Y279969D01*
X501294Y279945D01*
X501164Y279917D01*
X501034Y279886D01*
X500906Y279851D01*
X500778Y279812D01*
X500652Y279770D01*
X500527Y279724D01*
X500403Y279675D01*
X500280Y279623D01*
X500159Y279567D01*
X500040Y279507D01*
X499922Y279445D01*
X499807Y279379D01*
X499693Y279310D01*
X499581Y279237D01*
X499471Y279162D01*
X499363Y279083D01*
X503492Y275272D02*
X503576Y275324D01*
X503659Y275379D01*
X503739Y275438D01*
X503817Y275499D01*
X503892Y275563D01*
X503965Y275631D01*
X504036Y275701D01*
X504103Y275773D01*
X504168Y275848D01*
X504230Y275926D01*
X504289Y276006D01*
X504345Y276088D01*
X504397Y276172D01*
X504446Y276258D01*
X504492Y276346D01*
X504535Y276436D01*
X504574Y276527D01*
X504609Y276620D01*
X504641Y276714D01*
X504669Y276809D01*
X504694Y276905D01*
X504714Y277002D01*
X504732Y277100D01*
X504745Y277198D01*
X504754Y277297D01*
X504760Y277396D01*
X504762Y277495D01*
X499999Y273368D02*
X499915Y273316D01*
X499832Y273261D01*
X499752Y273202D01*
X499674Y273141D01*
X499599Y273077D01*
X499526Y273009D01*
X499455Y272939D01*
X499388Y272867D01*
X499323Y272792D01*
X499261Y272714D01*
X499202Y272634D01*
X499146Y272552D01*
X499094Y272468D01*
X499045Y272382D01*
X498999Y272294D01*
X498956Y272204D01*
X498917Y272113D01*
X498882Y272020D01*
X498850Y271926D01*
X498822Y271831D01*
X498797Y271735D01*
X498777Y271638D01*
X498759Y271540D01*
X498746Y271442D01*
X498737Y271343D01*
X498731Y271244D01*
X498729Y271145D01*
X499999Y273368D02*
X503491Y275273D01*
X493623Y268605D02*
X488543Y268605D01*
X493623Y268605D02*
X493623Y280035D01*
X488543Y280035D01*
X489813Y274955D02*
X493623Y274955D01*
X481711Y280035D02*
X481711Y268605D01*
X484886Y280035D02*
X478536Y280035D01*
X471805Y280035D02*
X471805Y268605D01*
X474980Y280035D02*
X468630Y280035D01*
X464312Y276860D02*
X464312Y271780D01*
X464312Y276860D02*
X464310Y276971D01*
X464304Y277081D01*
X464295Y277192D01*
X464281Y277302D01*
X464264Y277411D01*
X464243Y277520D01*
X464218Y277628D01*
X464189Y277735D01*
X464157Y277841D01*
X464121Y277946D01*
X464081Y278049D01*
X464038Y278151D01*
X463991Y278252D01*
X463940Y278351D01*
X463887Y278448D01*
X463830Y278542D01*
X463769Y278635D01*
X463706Y278726D01*
X463639Y278815D01*
X463569Y278901D01*
X463496Y278984D01*
X463421Y279066D01*
X463343Y279144D01*
X463261Y279219D01*
X463178Y279292D01*
X463092Y279362D01*
X463003Y279429D01*
X462912Y279492D01*
X462819Y279553D01*
X462725Y279610D01*
X462628Y279663D01*
X462529Y279714D01*
X462428Y279761D01*
X462326Y279804D01*
X462223Y279844D01*
X462118Y279880D01*
X462012Y279912D01*
X461905Y279941D01*
X461797Y279966D01*
X461688Y279987D01*
X461579Y280004D01*
X461469Y280018D01*
X461358Y280027D01*
X461248Y280033D01*
X461137Y280035D01*
X461026Y280033D01*
X460916Y280027D01*
X460805Y280018D01*
X460695Y280004D01*
X460586Y279987D01*
X460477Y279966D01*
X460369Y279941D01*
X460262Y279912D01*
X460156Y279880D01*
X460051Y279844D01*
X459948Y279804D01*
X459846Y279761D01*
X459745Y279714D01*
X459646Y279663D01*
X459550Y279610D01*
X459455Y279553D01*
X459362Y279492D01*
X459271Y279429D01*
X459182Y279362D01*
X459096Y279292D01*
X459013Y279219D01*
X458931Y279144D01*
X458853Y279066D01*
X458778Y278984D01*
X458705Y278901D01*
X458635Y278815D01*
X458568Y278726D01*
X458505Y278635D01*
X458444Y278542D01*
X458387Y278448D01*
X458334Y278351D01*
X458283Y278252D01*
X458236Y278151D01*
X458193Y278049D01*
X458153Y277946D01*
X458117Y277841D01*
X458085Y277735D01*
X458056Y277628D01*
X458031Y277520D01*
X458010Y277411D01*
X457993Y277302D01*
X457979Y277192D01*
X457970Y277081D01*
X457964Y276971D01*
X457962Y276860D01*
X457962Y271780D01*
X457964Y271669D01*
X457970Y271559D01*
X457979Y271448D01*
X457993Y271338D01*
X458010Y271229D01*
X458031Y271120D01*
X458056Y271012D01*
X458085Y270905D01*
X458117Y270799D01*
X458153Y270694D01*
X458193Y270591D01*
X458236Y270489D01*
X458283Y270388D01*
X458334Y270289D01*
X458387Y270193D01*
X458444Y270098D01*
X458505Y270005D01*
X458568Y269914D01*
X458635Y269825D01*
X458705Y269739D01*
X458778Y269656D01*
X458853Y269574D01*
X458931Y269496D01*
X459013Y269421D01*
X459096Y269348D01*
X459182Y269278D01*
X459271Y269211D01*
X459362Y269148D01*
X459455Y269087D01*
X459550Y269030D01*
X459646Y268977D01*
X459745Y268926D01*
X459846Y268879D01*
X459948Y268836D01*
X460051Y268796D01*
X460156Y268760D01*
X460262Y268728D01*
X460369Y268699D01*
X460477Y268674D01*
X460586Y268653D01*
X460695Y268636D01*
X460805Y268622D01*
X460916Y268613D01*
X461026Y268607D01*
X461137Y268605D01*
X461248Y268607D01*
X461358Y268613D01*
X461469Y268622D01*
X461579Y268636D01*
X461688Y268653D01*
X461797Y268674D01*
X461905Y268699D01*
X462012Y268728D01*
X462118Y268760D01*
X462223Y268796D01*
X462326Y268836D01*
X462428Y268879D01*
X462529Y268926D01*
X462628Y268977D01*
X462724Y269030D01*
X462819Y269087D01*
X462912Y269148D01*
X463003Y269211D01*
X463092Y269278D01*
X463178Y269348D01*
X463261Y269421D01*
X463343Y269496D01*
X463421Y269574D01*
X463496Y269656D01*
X463569Y269739D01*
X463639Y269825D01*
X463706Y269914D01*
X463769Y270005D01*
X463830Y270098D01*
X463887Y270192D01*
X463940Y270289D01*
X463991Y270388D01*
X464038Y270489D01*
X464081Y270591D01*
X464121Y270694D01*
X464157Y270799D01*
X464189Y270905D01*
X464218Y271012D01*
X464243Y271120D01*
X464264Y271229D01*
X464281Y271338D01*
X464295Y271448D01*
X464304Y271559D01*
X464310Y271669D01*
X464312Y271780D01*
X452418Y268605D02*
X452418Y280035D01*
X449243Y280035D01*
X449132Y280033D01*
X449022Y280027D01*
X448911Y280018D01*
X448801Y280004D01*
X448692Y279987D01*
X448583Y279966D01*
X448475Y279941D01*
X448368Y279912D01*
X448262Y279880D01*
X448157Y279844D01*
X448054Y279804D01*
X447952Y279761D01*
X447851Y279714D01*
X447752Y279663D01*
X447656Y279610D01*
X447561Y279553D01*
X447468Y279492D01*
X447377Y279429D01*
X447288Y279362D01*
X447202Y279292D01*
X447119Y279219D01*
X447037Y279144D01*
X446959Y279066D01*
X446884Y278984D01*
X446811Y278901D01*
X446741Y278815D01*
X446674Y278726D01*
X446611Y278635D01*
X446550Y278542D01*
X446493Y278448D01*
X446440Y278351D01*
X446389Y278252D01*
X446342Y278151D01*
X446299Y278049D01*
X446259Y277946D01*
X446223Y277841D01*
X446191Y277735D01*
X446162Y277628D01*
X446137Y277520D01*
X446116Y277411D01*
X446099Y277302D01*
X446085Y277192D01*
X446076Y277081D01*
X446070Y276971D01*
X446068Y276860D01*
X446070Y276749D01*
X446076Y276639D01*
X446085Y276528D01*
X446099Y276418D01*
X446116Y276309D01*
X446137Y276200D01*
X446162Y276092D01*
X446191Y275985D01*
X446223Y275879D01*
X446259Y275774D01*
X446299Y275671D01*
X446342Y275569D01*
X446389Y275468D01*
X446440Y275369D01*
X446493Y275273D01*
X446550Y275178D01*
X446611Y275085D01*
X446674Y274994D01*
X446741Y274905D01*
X446811Y274819D01*
X446884Y274736D01*
X446959Y274654D01*
X447037Y274576D01*
X447119Y274501D01*
X447202Y274428D01*
X447288Y274358D01*
X447377Y274291D01*
X447468Y274228D01*
X447561Y274167D01*
X447656Y274110D01*
X447752Y274057D01*
X447851Y274006D01*
X447952Y273959D01*
X448054Y273916D01*
X448157Y273876D01*
X448262Y273840D01*
X448368Y273808D01*
X448475Y273779D01*
X448583Y273754D01*
X448692Y273733D01*
X448801Y273716D01*
X448911Y273702D01*
X449022Y273693D01*
X449132Y273687D01*
X449243Y273685D01*
X452418Y273685D01*
X448608Y273685D02*
X446068Y268605D01*
X440665Y268605D02*
X435585Y268605D01*
X440665Y268605D02*
X440665Y280035D01*
X435585Y280035D01*
X436855Y274955D02*
X440665Y274955D01*
X431546Y280035D02*
X425196Y280035D01*
X431546Y268605D01*
X425196Y268605D01*
X420091Y268605D02*
X415011Y268605D01*
X420091Y268605D02*
X420091Y280035D01*
X415011Y280035D01*
X416281Y274955D02*
X420091Y274955D01*
X410127Y280035D02*
X410127Y268605D01*
X410127Y280035D02*
X406952Y280035D01*
X406841Y280033D01*
X406731Y280027D01*
X406620Y280018D01*
X406510Y280004D01*
X406401Y279987D01*
X406292Y279966D01*
X406184Y279941D01*
X406077Y279912D01*
X405971Y279880D01*
X405866Y279844D01*
X405763Y279804D01*
X405661Y279761D01*
X405560Y279714D01*
X405461Y279663D01*
X405365Y279610D01*
X405270Y279553D01*
X405177Y279492D01*
X405086Y279429D01*
X404997Y279362D01*
X404911Y279292D01*
X404828Y279219D01*
X404746Y279144D01*
X404668Y279066D01*
X404593Y278984D01*
X404520Y278901D01*
X404450Y278815D01*
X404383Y278726D01*
X404320Y278635D01*
X404259Y278542D01*
X404202Y278448D01*
X404149Y278351D01*
X404098Y278252D01*
X404051Y278151D01*
X404008Y278049D01*
X403968Y277946D01*
X403932Y277841D01*
X403900Y277735D01*
X403871Y277628D01*
X403846Y277520D01*
X403825Y277411D01*
X403808Y277302D01*
X403794Y277192D01*
X403785Y277081D01*
X403779Y276971D01*
X403777Y276860D01*
X403779Y276749D01*
X403785Y276639D01*
X403794Y276528D01*
X403808Y276418D01*
X403825Y276309D01*
X403846Y276200D01*
X403871Y276092D01*
X403900Y275985D01*
X403932Y275879D01*
X403968Y275774D01*
X404008Y275671D01*
X404051Y275569D01*
X404098Y275468D01*
X404149Y275369D01*
X404202Y275273D01*
X404259Y275178D01*
X404320Y275085D01*
X404383Y274994D01*
X404450Y274905D01*
X404520Y274819D01*
X404593Y274736D01*
X404668Y274654D01*
X404746Y274576D01*
X404828Y274501D01*
X404911Y274428D01*
X404997Y274358D01*
X405086Y274291D01*
X405177Y274228D01*
X405270Y274167D01*
X405365Y274110D01*
X405461Y274057D01*
X405560Y274006D01*
X405661Y273959D01*
X405763Y273916D01*
X405866Y273876D01*
X405971Y273840D01*
X406077Y273808D01*
X406184Y273779D01*
X406292Y273754D01*
X406401Y273733D01*
X406510Y273716D01*
X406620Y273702D01*
X406731Y273693D01*
X406841Y273687D01*
X406952Y273685D01*
X410127Y273685D01*
X406317Y273685D02*
X403777Y268605D01*
X398780Y271780D02*
X398780Y276860D01*
X398778Y276971D01*
X398772Y277081D01*
X398763Y277192D01*
X398749Y277302D01*
X398732Y277411D01*
X398711Y277520D01*
X398686Y277628D01*
X398657Y277735D01*
X398625Y277841D01*
X398589Y277946D01*
X398549Y278049D01*
X398506Y278151D01*
X398459Y278252D01*
X398408Y278351D01*
X398355Y278448D01*
X398298Y278542D01*
X398237Y278635D01*
X398174Y278726D01*
X398107Y278815D01*
X398037Y278901D01*
X397964Y278984D01*
X397889Y279066D01*
X397811Y279144D01*
X397729Y279219D01*
X397646Y279292D01*
X397560Y279362D01*
X397471Y279429D01*
X397380Y279492D01*
X397287Y279553D01*
X397193Y279610D01*
X397096Y279663D01*
X396997Y279714D01*
X396896Y279761D01*
X396794Y279804D01*
X396691Y279844D01*
X396586Y279880D01*
X396480Y279912D01*
X396373Y279941D01*
X396265Y279966D01*
X396156Y279987D01*
X396047Y280004D01*
X395937Y280018D01*
X395826Y280027D01*
X395716Y280033D01*
X395605Y280035D01*
X395494Y280033D01*
X395384Y280027D01*
X395273Y280018D01*
X395163Y280004D01*
X395054Y279987D01*
X394945Y279966D01*
X394837Y279941D01*
X394730Y279912D01*
X394624Y279880D01*
X394519Y279844D01*
X394416Y279804D01*
X394314Y279761D01*
X394213Y279714D01*
X394114Y279663D01*
X394018Y279610D01*
X393923Y279553D01*
X393830Y279492D01*
X393739Y279429D01*
X393650Y279362D01*
X393564Y279292D01*
X393481Y279219D01*
X393399Y279144D01*
X393321Y279066D01*
X393246Y278984D01*
X393173Y278901D01*
X393103Y278815D01*
X393036Y278726D01*
X392973Y278635D01*
X392912Y278542D01*
X392855Y278448D01*
X392802Y278351D01*
X392751Y278252D01*
X392704Y278151D01*
X392661Y278049D01*
X392621Y277946D01*
X392585Y277841D01*
X392553Y277735D01*
X392524Y277628D01*
X392499Y277520D01*
X392478Y277411D01*
X392461Y277302D01*
X392447Y277192D01*
X392438Y277081D01*
X392432Y276971D01*
X392430Y276860D01*
X392430Y271780D01*
X392432Y271669D01*
X392438Y271559D01*
X392447Y271448D01*
X392461Y271338D01*
X392478Y271229D01*
X392499Y271120D01*
X392524Y271012D01*
X392553Y270905D01*
X392585Y270799D01*
X392621Y270694D01*
X392661Y270591D01*
X392704Y270489D01*
X392751Y270388D01*
X392802Y270289D01*
X392855Y270193D01*
X392912Y270098D01*
X392973Y270005D01*
X393036Y269914D01*
X393103Y269825D01*
X393173Y269739D01*
X393246Y269656D01*
X393321Y269574D01*
X393399Y269496D01*
X393481Y269421D01*
X393564Y269348D01*
X393650Y269278D01*
X393739Y269211D01*
X393830Y269148D01*
X393923Y269087D01*
X394018Y269030D01*
X394114Y268977D01*
X394213Y268926D01*
X394314Y268879D01*
X394416Y268836D01*
X394519Y268796D01*
X394624Y268760D01*
X394730Y268728D01*
X394837Y268699D01*
X394945Y268674D01*
X395054Y268653D01*
X395163Y268636D01*
X395273Y268622D01*
X395384Y268613D01*
X395494Y268607D01*
X395605Y268605D01*
X395716Y268607D01*
X395826Y268613D01*
X395937Y268622D01*
X396047Y268636D01*
X396156Y268653D01*
X396265Y268674D01*
X396373Y268699D01*
X396480Y268728D01*
X396586Y268760D01*
X396691Y268796D01*
X396794Y268836D01*
X396896Y268879D01*
X396997Y268926D01*
X397096Y268977D01*
X397192Y269030D01*
X397287Y269087D01*
X397380Y269148D01*
X397471Y269211D01*
X397560Y269278D01*
X397646Y269348D01*
X397729Y269421D01*
X397811Y269496D01*
X397889Y269574D01*
X397964Y269656D01*
X398037Y269739D01*
X398107Y269825D01*
X398174Y269914D01*
X398237Y270005D01*
X398298Y270098D01*
X398355Y270192D01*
X398408Y270289D01*
X398459Y270388D01*
X398506Y270489D01*
X398549Y270591D01*
X398589Y270694D01*
X398625Y270799D01*
X398657Y270905D01*
X398686Y271012D01*
X398711Y271120D01*
X398732Y271229D01*
X398749Y271338D01*
X398763Y271448D01*
X398772Y271559D01*
X398778Y271669D01*
X398780Y271780D01*
X387921Y269240D02*
X387921Y268605D01*
X387921Y269240D02*
X387286Y269240D01*
X387286Y268605D01*
X387921Y268605D01*
X380275Y268605D02*
X377735Y268605D01*
X380275Y268605D02*
X380375Y268607D01*
X380474Y268613D01*
X380574Y268623D01*
X380672Y268636D01*
X380771Y268654D01*
X380868Y268675D01*
X380964Y268700D01*
X381060Y268729D01*
X381154Y268762D01*
X381247Y268798D01*
X381338Y268838D01*
X381428Y268882D01*
X381516Y268929D01*
X381602Y268979D01*
X381686Y269033D01*
X381768Y269090D01*
X381847Y269150D01*
X381925Y269214D01*
X381999Y269280D01*
X382071Y269349D01*
X382140Y269421D01*
X382206Y269495D01*
X382270Y269573D01*
X382330Y269652D01*
X382387Y269734D01*
X382441Y269818D01*
X382491Y269904D01*
X382538Y269992D01*
X382582Y270082D01*
X382622Y270173D01*
X382658Y270266D01*
X382691Y270360D01*
X382720Y270456D01*
X382745Y270552D01*
X382766Y270649D01*
X382784Y270748D01*
X382797Y270846D01*
X382807Y270946D01*
X382813Y271045D01*
X382815Y271145D01*
X382815Y277495D01*
X382813Y277595D01*
X382807Y277694D01*
X382797Y277794D01*
X382784Y277892D01*
X382766Y277991D01*
X382745Y278088D01*
X382720Y278184D01*
X382691Y278280D01*
X382658Y278374D01*
X382622Y278467D01*
X382582Y278558D01*
X382538Y278648D01*
X382491Y278736D01*
X382441Y278822D01*
X382387Y278906D01*
X382330Y278988D01*
X382270Y279067D01*
X382206Y279145D01*
X382140Y279219D01*
X382071Y279291D01*
X381999Y279360D01*
X381925Y279426D01*
X381847Y279490D01*
X381768Y279550D01*
X381686Y279607D01*
X381602Y279661D01*
X381516Y279711D01*
X381428Y279758D01*
X381338Y279802D01*
X381247Y279842D01*
X381154Y279878D01*
X381060Y279911D01*
X380964Y279940D01*
X380868Y279965D01*
X380771Y279986D01*
X380672Y280004D01*
X380574Y280017D01*
X380474Y280027D01*
X380375Y280033D01*
X380275Y280035D01*
X377735Y280035D01*
X373253Y276860D02*
X373253Y271780D01*
X373253Y276860D02*
X373251Y276971D01*
X373245Y277081D01*
X373236Y277192D01*
X373222Y277302D01*
X373205Y277411D01*
X373184Y277520D01*
X373159Y277628D01*
X373130Y277735D01*
X373098Y277841D01*
X373062Y277946D01*
X373022Y278049D01*
X372979Y278151D01*
X372932Y278252D01*
X372881Y278351D01*
X372828Y278448D01*
X372771Y278542D01*
X372710Y278635D01*
X372647Y278726D01*
X372580Y278815D01*
X372510Y278901D01*
X372437Y278984D01*
X372362Y279066D01*
X372284Y279144D01*
X372202Y279219D01*
X372119Y279292D01*
X372033Y279362D01*
X371944Y279429D01*
X371853Y279492D01*
X371760Y279553D01*
X371666Y279610D01*
X371569Y279663D01*
X371470Y279714D01*
X371369Y279761D01*
X371267Y279804D01*
X371164Y279844D01*
X371059Y279880D01*
X370953Y279912D01*
X370846Y279941D01*
X370738Y279966D01*
X370629Y279987D01*
X370520Y280004D01*
X370410Y280018D01*
X370299Y280027D01*
X370189Y280033D01*
X370078Y280035D01*
X369967Y280033D01*
X369857Y280027D01*
X369746Y280018D01*
X369636Y280004D01*
X369527Y279987D01*
X369418Y279966D01*
X369310Y279941D01*
X369203Y279912D01*
X369097Y279880D01*
X368992Y279844D01*
X368889Y279804D01*
X368787Y279761D01*
X368686Y279714D01*
X368587Y279663D01*
X368491Y279610D01*
X368396Y279553D01*
X368303Y279492D01*
X368212Y279429D01*
X368123Y279362D01*
X368037Y279292D01*
X367954Y279219D01*
X367872Y279144D01*
X367794Y279066D01*
X367719Y278984D01*
X367646Y278901D01*
X367576Y278815D01*
X367509Y278726D01*
X367446Y278635D01*
X367385Y278542D01*
X367328Y278448D01*
X367275Y278351D01*
X367224Y278252D01*
X367177Y278151D01*
X367134Y278049D01*
X367094Y277946D01*
X367058Y277841D01*
X367026Y277735D01*
X366997Y277628D01*
X366972Y277520D01*
X366951Y277411D01*
X366934Y277302D01*
X366920Y277192D01*
X366911Y277081D01*
X366905Y276971D01*
X366903Y276860D01*
X366903Y271780D01*
X366905Y271669D01*
X366911Y271559D01*
X366920Y271448D01*
X366934Y271338D01*
X366951Y271229D01*
X366972Y271120D01*
X366997Y271012D01*
X367026Y270905D01*
X367058Y270799D01*
X367094Y270694D01*
X367134Y270591D01*
X367177Y270489D01*
X367224Y270388D01*
X367275Y270289D01*
X367328Y270193D01*
X367385Y270098D01*
X367446Y270005D01*
X367509Y269914D01*
X367576Y269825D01*
X367646Y269739D01*
X367719Y269656D01*
X367794Y269574D01*
X367872Y269496D01*
X367954Y269421D01*
X368037Y269348D01*
X368123Y269278D01*
X368212Y269211D01*
X368303Y269148D01*
X368396Y269087D01*
X368491Y269030D01*
X368587Y268977D01*
X368686Y268926D01*
X368787Y268879D01*
X368889Y268836D01*
X368992Y268796D01*
X369097Y268760D01*
X369203Y268728D01*
X369310Y268699D01*
X369418Y268674D01*
X369527Y268653D01*
X369636Y268636D01*
X369746Y268622D01*
X369857Y268613D01*
X369967Y268607D01*
X370078Y268605D01*
X370189Y268607D01*
X370299Y268613D01*
X370410Y268622D01*
X370520Y268636D01*
X370629Y268653D01*
X370738Y268674D01*
X370846Y268699D01*
X370953Y268728D01*
X371059Y268760D01*
X371164Y268796D01*
X371267Y268836D01*
X371369Y268879D01*
X371470Y268926D01*
X371569Y268977D01*
X371665Y269030D01*
X371760Y269087D01*
X371853Y269148D01*
X371944Y269211D01*
X372033Y269278D01*
X372119Y269348D01*
X372202Y269421D01*
X372284Y269496D01*
X372362Y269574D01*
X372437Y269656D01*
X372510Y269739D01*
X372580Y269825D01*
X372647Y269914D01*
X372710Y270005D01*
X372771Y270098D01*
X372828Y270192D01*
X372881Y270289D01*
X372932Y270388D01*
X372979Y270489D01*
X373022Y270591D01*
X373062Y270694D01*
X373098Y270799D01*
X373130Y270905D01*
X373159Y271012D01*
X373184Y271120D01*
X373205Y271229D01*
X373222Y271338D01*
X373236Y271448D01*
X373245Y271559D01*
X373251Y271669D01*
X373253Y271780D01*
X361315Y268605D02*
X361315Y280035D01*
X357505Y273685D01*
X353695Y280035D01*
X353695Y268605D01*
M02*
